<svg width="108" height="84" viewBox="0 0 108 84" fill="none" xmlns="http://www.w3.org/2000/svg">
<path d="M100.06 2.8574e-05H7C5.14348 2.8574e-05 3.36301 0.737526 2.05025 2.05028C0.737498 3.36304 0 5.14351 0 7.00003L0 62.84C0 64.6965 0.737498 66.477 2.05025 67.7898C3.36301 69.1025 5.14348 69.84 7 69.84H46.54V74.84L20.54 79.16C19.9327 79.2701 19.3923 79.6128 19.0338 80.1152C18.6752 80.6175 18.5268 81.2399 18.62 81.85C18.7141 82.3922 18.9962 82.8839 19.4168 83.2387C19.8375 83.5935 20.3697 83.7887 20.92 83.79C21.0498 83.8 21.1802 83.8 21.31 83.79L49.04 79.16H58.04L85.77 83.79C85.8998 83.8 86.0302 83.8 86.16 83.79C86.7454 83.7894 87.309 83.5684 87.7389 83.171C88.1687 82.7737 88.4333 82.2291 88.4799 81.6456C88.5265 81.0621 88.3518 80.4825 87.9905 80.0219C87.6292 79.5613 87.1078 79.2537 86.53 79.16L60.53 74.84V69.84H100.08C101.937 69.84 103.717 69.1025 105.03 67.7898C106.342 66.477 107.08 64.6965 107.08 62.84V7.00003C107.08 6.07909 106.898 5.1672 106.545 4.31662C106.192 3.46603 105.675 2.69347 105.023 2.0432C104.371 1.39292 103.597 0.877725 102.745 0.527121C101.893 0.176516 100.981 -0.00260268 100.06 2.8574e-05ZM55.86 74.47H51.21V69.82H55.86V74.47ZM102.4 62.84C102.4 63.4606 102.153 64.0558 101.715 64.4947C101.276 64.9335 100.681 65.18 100.06 65.18H7C6.69318 65.18 6.38937 65.1194 6.10603 65.0017C5.82269 64.884 5.56539 64.7115 5.3489 64.4941C5.1324 64.2766 4.96099 64.0186 4.84448 63.7347C4.72798 63.4509 4.66868 63.1468 4.67 62.84V7.00003C4.66736 6.69237 4.72568 6.38723 4.84159 6.10223C4.9575 5.81723 5.12871 5.55801 5.34533 5.33953C5.56195 5.12104 5.8197 4.94762 6.1037 4.82928C6.3877 4.71094 6.69233 4.65002 7 4.65003H100.11C100.416 4.65264 100.718 4.7155 101 4.83502C101.282 4.95454 101.537 5.12837 101.752 5.34659C101.966 5.56481 102.136 5.82314 102.25 6.10684C102.365 6.39054 102.423 6.69405 102.42 7.00003V62.84H102.4Z" fill="#39B54A"/>
<path d="M29.9211 36.2741V31.6142L27.2067 36.2741H29.9211ZM32.7766 36.2741H34.2044V38.6276H32.7766V41.0596H29.9211V38.6276H24.2099V36.6507L28.7286 29.2293H32.7766V36.2741ZM38.9693 34.1089L42.7192 29.2293H46.5162L41.8249 34.8306L46.9555 41.0596H42.9702L38.9693 35.9289V41.0596H35.894V29.2293H38.9693V34.1089ZM56.7278 29.2293V35.6622C56.7278 36.0074 56.7382 36.363 56.7592 36.7291C56.7905 37.0848 56.869 37.409 56.9945 37.7019C57.1305 37.9948 57.3397 38.2354 57.6221 38.4237C57.9045 38.6015 58.302 38.6904 58.8146 38.6904C59.3271 38.6904 59.7193 38.6015 59.9913 38.4237C60.2737 38.2354 60.4829 37.9948 60.6189 37.7019C60.7549 37.409 60.8333 37.0848 60.8543 36.7291C60.8856 36.363 60.9013 36.0074 60.9013 35.6622V29.2293H63.9609V36.0858C63.9609 37.9268 63.5372 39.2709 62.69 40.1182C61.8532 40.9654 60.5614 41.3891 58.8146 41.3891C57.0677 41.3891 55.7707 40.9654 54.9234 40.1182C54.0762 39.2709 53.6525 37.9268 53.6525 36.0858V29.2293H56.7278ZM69.5219 33.7951H73.9621V29.2293H77.0374V41.0596H73.9621V36.18H69.5219V41.0596H66.4466V29.2293H69.5219V33.7951ZM82.5918 38.455H83.2978C83.8313 38.455 84.3072 38.3714 84.7256 38.204C85.144 38.0366 85.4944 37.8065 85.7768 37.5136C86.0697 37.2208 86.2894 36.8756 86.4358 36.4781C86.5927 36.0701 86.6712 35.6256 86.6712 35.1444C86.6712 34.6737 86.5927 34.2344 86.4358 33.8265C86.2789 33.4185 86.054 33.0681 85.7611 32.7753C85.4787 32.4824 85.1283 32.2522 84.7099 32.0849C84.2915 31.9175 83.8208 31.8339 83.2978 31.8339H82.5918V38.455ZM79.5165 29.2293H84.0666C84.872 29.2293 85.6252 29.3914 86.326 29.7157C87.0373 30.04 87.6544 30.4741 88.1774 31.018C88.7109 31.5514 89.1293 32.179 89.4326 32.9008C89.7359 33.6121 89.8876 34.3599 89.8876 35.1444C89.8876 35.9185 89.7359 36.6664 89.4326 37.3881C89.1397 38.0994 88.7266 38.727 88.1931 39.2709C87.6701 39.8148 87.053 40.2489 86.3417 40.5732C85.6409 40.8974 84.8825 41.0596 84.0666 41.0596H79.5165V29.2293Z" fill="black"/>
</svg>
