<svg width="71" height="84" viewBox="0 0 71 84" fill="none" xmlns="http://www.w3.org/2000/svg">
<g clip-path="url(#clip0)">
<path d="M5.14062 26.9198C4.4642 26.9057 3.79208 27.0307 3.16594 27.287C2.53979 27.5433 1.97297 27.9255 1.50062 28.4098C1.01919 28.8745 0.637794 29.4326 0.37985 30.0499C0.121906 30.6673 -0.00714485 31.3308 0.000619129 31.9998V53.4798C-0.0100563 54.1582 0.117424 54.8316 0.375299 55.4591C0.633174 56.0866 1.01605 56.655 1.50062 57.1298C1.97511 57.6114 2.54232 57.9917 3.16796 58.2478C3.7936 58.5039 4.46467 58.6305 5.14062 58.6198C5.81402 58.6336 6.48303 58.5084 7.10588 58.252C7.72872 57.9957 8.29203 57.6137 8.76062 57.1298C9.23924 56.6516 9.61689 56.0821 9.87113 55.4551C10.1254 54.8281 10.251 54.1564 10.2406 53.4798V31.9998C10.2498 31.3291 10.1214 30.6637 9.86338 30.0445C9.6054 29.4254 9.22328 28.8656 8.74062 28.3998C8.27434 27.9185 7.71429 27.5379 7.09508 27.2817C6.47587 27.0254 5.81068 26.8988 5.14062 26.9098V26.9198Z" fill="#39B54A"/>
<path d="M46.4901 7.64L50.0001 1.1C50.062 1.02195 50.1051 0.930713 50.1262 0.833339C50.1472 0.735965 50.1456 0.635057 50.1214 0.538411C50.0973 0.441764 50.0512 0.351964 49.9868 0.275947C49.9224 0.19993 49.8414 0.13973 49.7501 0.0999966C49.6661 0.0484678 49.5721 0.0152599 49.4744 0.00254606C49.3767 -0.0101678 49.2774 -0.00210093 49.183 0.0262187C49.0886 0.0545383 49.0012 0.102472 48.9266 0.166884C48.852 0.231295 48.7919 0.310732 48.7501 0.399997L45.1901 7C42.0263 5.61343 38.6094 4.89757 35.1551 4.89757C31.7008 4.89757 28.2839 5.61343 25.1201 7L21.5201 0.399997C21.4796 0.309608 21.4201 0.229 21.3456 0.163652C21.2712 0.0983047 21.1836 0.0497496 21.0887 0.0212874C20.9938 -0.00717481 20.8939 -0.0148769 20.7958 -0.00129541C20.6977 0.0122861 20.6037 0.0468329 20.5201 0.0999966C20.4295 0.140728 20.3495 0.201663 20.2862 0.278126C20.2228 0.354589 20.1778 0.444547 20.1547 0.541097C20.1315 0.637648 20.1308 0.738224 20.1525 0.835106C20.1742 0.931989 20.2179 1.0226 20.2801 1.1L23.8201 7.64C20.3241 9.38498 17.3583 12.0331 15.2301 15.31C13.1125 18.4981 11.9884 22.2427 12.0001 26.07H58.2201C58.239 22.2432 57.118 18.4974 55.0001 15.31C52.8899 12.0399 49.9452 9.39215 46.4701 7.64H46.4901ZM26.0001 17.15C25.8247 17.3367 25.6122 17.4848 25.3763 17.5846C25.1404 17.6845 24.8862 17.734 24.6301 17.73C24.3766 17.7363 24.1247 17.6877 23.8917 17.5876C23.6587 17.4875 23.45 17.3382 23.2801 17.15C22.9313 16.7791 22.7372 16.2891 22.7372 15.78C22.7372 15.2709 22.9313 14.7809 23.2801 14.41C23.4521 14.2243 23.6611 14.0768 23.8936 13.9768C24.1261 13.8769 24.377 13.8269 24.6301 13.83C25.0153 13.8287 25.3922 13.9421 25.7128 14.1559C26.0333 14.3696 26.2829 14.6739 26.4299 15.03C26.5768 15.3861 26.6144 15.7779 26.5379 16.1554C26.4614 16.533 26.2741 16.8792 26.0001 17.15ZM47.0501 17.15C46.8789 17.3367 46.6701 17.4849 46.4373 17.5849C46.2046 17.6849 45.9533 17.7343 45.7001 17.73C45.3149 17.7313 44.938 17.6178 44.6174 17.4041C44.2969 17.1904 44.0472 16.8861 43.9003 16.53C43.7533 16.1739 43.7157 15.7821 43.7923 15.4045C43.8688 15.027 44.0561 14.6808 44.3301 14.41C44.507 14.2252 44.7197 14.0784 44.9553 13.9787C45.1908 13.879 45.4443 13.8284 45.7001 13.83C45.9531 13.8275 46.2038 13.8778 46.4362 13.9777C46.6687 14.0776 46.8777 14.2248 47.0501 14.41C47.3988 14.7809 47.593 15.2709 47.593 15.78C47.593 16.2891 47.3988 16.7791 47.0501 17.15Z" fill="#39B54A"/>
<path d="M12.2306 61.1203C12.2266 61.8433 12.3662 62.5598 12.6413 63.2283C12.9164 63.8968 13.3215 64.5041 13.8332 65.0148C14.3448 65.5255 14.9528 65.9296 15.6218 66.2035C16.2909 66.4774 17.0076 66.6157 17.7306 66.6104H21.4206V77.9503C21.4167 78.9646 21.7142 79.9571 22.2753 80.802C22.8364 81.6469 23.6358 82.3062 24.5721 82.6961C25.5083 83.086 26.5393 83.1891 27.5343 82.9922C28.5292 82.7954 29.4433 82.3075 30.1606 81.5903C30.6469 81.1268 31.0347 80.57 31.3011 79.9532C31.5674 79.3363 31.7066 78.6722 31.7106 78.0004V66.6104H38.6006V78.0004C38.6006 79.3636 39.1421 80.6709 40.106 81.6349C41.07 82.5988 42.3773 83.1404 43.7406 83.1404C45.1038 83.1404 46.4111 82.5988 47.3751 81.6349C48.339 80.6709 48.8806 79.3636 48.8806 78.0004V66.6104H52.6306C53.3483 66.62 54.0605 66.4821 54.7227 66.2051C55.385 65.9282 55.9833 65.5181 56.4806 65.0004C56.9968 64.4946 57.4041 63.8886 57.6776 63.2197C57.951 62.5507 58.0847 61.8329 58.0706 61.1104V27.8604H12.2306V61.1203Z" fill="#39B54A"/>
<path d="M65.1609 26.9203C64.4926 26.9177 63.8304 27.0472 63.2123 27.3015C62.5942 27.5557 62.0325 27.9296 61.5594 28.4017C61.0864 28.8739 60.7113 29.4348 60.4559 30.0524C60.2004 30.67 60.0696 31.332 60.0709 32.0003V53.4803C60.0603 54.1587 60.1877 54.8321 60.4456 55.4596C60.7035 56.0871 61.0864 56.6555 61.5709 57.1303C62.0371 57.609 62.5958 57.9879 63.2129 58.2441C63.83 58.5002 64.4928 58.6282 65.1609 58.6203C65.8383 58.627 66.5101 58.4987 67.1373 58.2428C67.7645 57.987 68.3344 57.6088 68.8138 57.1303C69.2933 56.6518 69.6726 56.0826 69.9296 55.456C70.1866 54.8293 70.3163 54.1577 70.3109 53.4803V32.0003C70.3252 31.326 70.1993 30.656 69.9411 30.0328C69.6829 29.4097 69.298 28.847 68.8109 28.3803C68.3336 27.9012 67.764 27.5239 67.1366 27.2712C66.5092 27.0185 65.8371 26.8958 65.1609 26.9103V26.9203Z" fill="#39B54A"/>
</g>
<defs>
<clipPath id="clip0">
<rect width="70.31" height="83.09" fill="white"/>
</clipPath>
</defs>
</svg>
