<svg width="85" height="69" viewBox="0 0 85 69" fill="none" xmlns="http://www.w3.org/2000/svg">
<g clip-path="url(#clip0)">
<path d="M49.83 60.81H76.5V7.74H7.7V18.94H0V8.2C0 3.27 3.24 0 8.23 0C13.53 0 18.83 0 24.13 0H75.39C81.39 0 84.39 3 84.39 8.92V60C84.39 65.25 81.21 68.44 75.93 68.45C67.82 68.45 59.71 68.45 51.6 68.45C50.28 68.45 49.77 68.12 49.85 66.75C49.91 64.88 49.83 63 49.83 60.81Z" fill="#39B54A"/>
<path d="M0.0703125 34.14V26.87C19.7903 25.71 42.3503 43.14 42.0703 68.45C39.8203 68.45 37.5703 68.51 35.3303 68.38C35.0003 68.38 34.5003 67.38 34.4803 66.89C34.2092 59.8524 31.701 53.0846 27.3203 47.57C24.3769 43.7226 20.643 40.5509 16.3701 38.2687C12.0972 35.9865 7.38475 34.6469 2.55031 34.34L0.0703125 34.14Z" fill="#39B54A"/>
<path d="M19.3006 68.4598C18.7706 57.1698 10.3006 49.7198 0.140625 49.3598V42.0798C12.6306 41.0798 27.0306 52.6298 26.7506 68.4598H19.3006Z" fill="#39B54A"/>
<path d="M0.109375 57C6.81938 57.47 11.7194 62.44 11.3394 68.27H0.109375V57Z" fill="#39B54A"/>
</g>
<defs>
<clipPath id="clip0">
<rect width="84.35" height="68.49" fill="white"/>
</clipPath>
</defs>
</svg>
