<svg width="94" height="82" viewBox="0 0 94 82" fill="none" xmlns="http://www.w3.org/2000/svg">
<g clip-path="url(#clip0)">
<path d="M86.1657 9.46293H50.3584C49.5844 9.46378 48.8222 9.27272 48.139 8.90664C47.4558 8.54055 46.8727 8.01071 46.4412 7.36394L43.9066 3.47906C43.188 2.40383 42.2169 1.52375 41.0794 0.916864C39.9419 0.309983 38.6731 -0.00493042 37.3857 5.83621e-05H7.83429C5.75745 0.00312584 3.76653 0.834926 2.29798 2.31312C0.829423 3.79132 0.00304747 5.79531 0 7.88579L0 74.1143C0 76.2057 0.825397 78.2115 2.29461 79.6904C3.76383 81.1692 5.75651 82.0001 7.83429 82.0001H86.1772C87.2065 82.0016 88.2259 81.7987 89.1771 81.4029C90.1283 81.0071 90.9925 80.4263 91.7203 79.6938C92.4481 78.9612 93.0251 78.0913 93.4183 77.1339C93.8114 76.1764 94.013 75.1503 94.0115 74.1143V17.3951C94.0176 16.3546 93.8191 15.3232 93.4274 14.3604C93.0357 13.3975 92.4585 12.5222 91.7292 11.7849C90.9999 11.0475 90.1328 10.4628 89.178 10.0643C88.2231 9.66575 87.1994 9.46139 86.1657 9.46293ZM3.13372 7.88579C3.13372 6.63093 3.62896 5.42747 4.51048 4.54016C5.39201 3.65284 6.58762 3.15435 7.83429 3.15435H37.3857C38.1593 3.15552 38.9208 3.34746 39.6037 3.71337C40.2866 4.07928 40.8699 4.60802 41.3029 5.25335L43.8375 9.10344C44.5568 10.1779 45.5281 11.0575 46.6654 11.6643C47.8028 12.2711 49.0712 12.5864 50.3584 12.5824H86.1657C86.7898 12.5823 87.4078 12.7074 87.9834 12.9502C88.559 13.193 89.0808 13.5488 89.5184 13.9968C89.9559 14.4448 90.3005 14.976 90.5319 15.5595C90.7633 16.1429 90.877 16.7669 90.8663 17.3951V20.5493L90.682 20.4218L90.2787 20.1667C90.0148 20.0039 89.7416 19.8568 89.4607 19.726C89.3077 19.6467 89.1499 19.577 88.9884 19.5172C88.6835 19.4016 88.3718 19.3047 88.0552 19.2273L87.6174 19.1114C87.1391 19.018 86.6529 18.9714 86.1657 18.9722H7.83429C7.34645 18.97 6.85978 19.0206 6.38265 19.123C6.23492 19.1496 6.08876 19.1845 5.94485 19.2273C5.6282 19.3047 5.31655 19.4016 5.01164 19.5172L4.53928 19.7144C4.25837 19.8452 3.98525 19.9924 3.72129 20.1551L3.31805 20.4218L3.13372 20.5377V7.88579ZM90.8663 74.1143C90.8693 74.7371 90.7499 75.3543 90.5149 75.9303C90.2799 76.5064 89.934 77.03 89.497 77.4709C89.0601 77.9118 88.5408 78.2613 87.969 78.4992C87.3973 78.7372 86.7844 78.8589 86.1657 78.8574H7.83429C6.58762 78.8574 5.39201 78.3589 4.51048 77.4715C3.62896 76.5842 3.13372 75.3808 3.13372 74.1259V26.8115C3.12763 26.1863 3.24472 25.5661 3.47821 24.9866C3.71171 24.4072 4.05699 23.8802 4.49408 23.4359C4.93118 22.9916 5.45143 22.6389 6.02475 22.3983C6.59808 22.1576 7.21311 22.0337 7.83429 22.0337H86.1772C86.795 22.0322 87.4069 22.1535 87.9779 22.3908C88.5489 22.628 89.0676 22.9764 89.5044 23.4161C89.9412 23.8558 90.2874 24.378 90.5231 24.9527C90.7588 25.5274 90.8793 26.1434 90.8778 26.7652L90.8663 74.1143Z" fill="#39B54A"/>
<path d="M66.8805 44.4036C65.8712 39.8544 63.352 35.7871 59.7383 32.8723C56.1245 29.9575 51.6318 28.3691 47.0009 28.3691C42.3701 28.3691 37.8774 29.9575 34.2636 32.8723C30.6499 35.7871 28.1307 39.8544 27.1214 44.4036C23.6525 45.0423 20.5476 46.9671 18.4199 49.7979C16.2922 52.6287 15.2965 56.1596 15.6293 59.6934C15.9622 63.2272 17.5994 66.507 20.2177 68.8849C22.8359 71.2628 26.2449 72.566 29.7713 72.5371H64.2306C67.757 72.566 71.166 71.2628 73.7842 68.8849C76.4025 66.507 78.0397 63.2272 78.3726 59.6934C78.7054 56.1596 77.7097 52.6287 75.582 49.7979C73.4543 46.9671 70.3494 45.0423 66.8805 44.4036ZM64.2306 69.3828H29.7713C26.9347 69.4246 24.1924 68.3585 22.1201 66.4084C20.0479 64.4582 18.8069 61.7757 18.6578 58.9242C18.5087 56.0727 19.4631 53.2739 21.3205 51.1156C23.1779 48.9572 25.7939 47.6073 28.6192 47.3491L29.7713 47.2332L29.9671 46.0735C30.695 42.0697 32.7947 38.4495 35.9008 35.8432C39.0069 33.237 42.9226 31.8096 46.9664 31.8096C51.0102 31.8096 54.9259 33.237 58.032 35.8432C61.138 38.4495 63.2378 42.0697 63.9657 46.0735L64.1615 47.2332L65.3136 47.3491C68.1389 47.6073 70.7548 48.9572 72.6123 51.1156C74.4697 53.2739 75.4241 56.0727 75.275 58.9242C75.1259 61.7757 73.8849 64.4582 71.8126 66.4084C69.7404 68.3585 66.9981 69.4246 64.1615 69.3828H64.2306Z" fill="#39B54A"/>
<path d="M52.5357 56.8237L48.5725 60.8246V44.1602C48.5725 43.7419 48.4074 43.3407 48.1136 43.0449C47.8197 42.7492 47.4212 42.583 47.0056 42.583C46.5901 42.583 46.1915 42.7492 45.8977 43.0449C45.6038 43.3407 45.4388 43.7419 45.4388 44.1602V60.8478L41.4755 56.8237C41.1868 56.5161 40.7885 56.3366 40.3682 56.3247C39.948 56.3127 39.5402 56.4693 39.2347 56.7599C38.9291 57.0506 38.7508 57.4515 38.7389 57.8745C38.727 58.2975 38.8826 58.7079 39.1713 59.0155L45.819 65.7068C46.1146 66.0021 46.5142 66.1678 46.9307 66.1678C47.3472 66.1678 47.7469 66.0021 48.0425 65.7068L54.7593 59.143C55.0648 58.8462 55.2407 58.4394 55.2483 58.0121C55.2558 57.5847 55.0944 57.1719 54.7996 56.8643C54.5047 56.5567 54.1006 56.3797 53.676 56.3721C53.2514 56.3644 52.8413 56.5269 52.5357 56.8237Z" fill="#39B54A"/>
</g>
<defs>
<clipPath id="clip0">
<rect width="94" height="82" fill="white"/>
</clipPath>
</defs>
</svg>
