<svg width="108" height="84" viewBox="0 0 108 84" fill="none" xmlns="http://www.w3.org/2000/svg">
<path d="M100.06 2.8574e-05H7C5.14348 2.8574e-05 3.36301 0.737526 2.05025 2.05028C0.737498 3.36304 0 5.14351 0 7.00003L0 62.84C0 64.6965 0.737498 66.477 2.05025 67.7898C3.36301 69.1025 5.14348 69.84 7 69.84H46.54V74.84L20.54 79.16C19.9327 79.2701 19.3923 79.6128 19.0338 80.1152C18.6752 80.6175 18.5268 81.2399 18.62 81.85C18.7141 82.3922 18.9962 82.8839 19.4168 83.2387C19.8375 83.5935 20.3697 83.7887 20.92 83.79C21.0498 83.8 21.1802 83.8 21.31 83.79L49.04 79.16H58.04L85.77 83.79C85.8998 83.8 86.0302 83.8 86.16 83.79C86.7454 83.7894 87.309 83.5684 87.7389 83.171C88.1687 82.7737 88.4333 82.2291 88.4799 81.6456C88.5265 81.0621 88.3518 80.4825 87.9905 80.0219C87.6292 79.5613 87.1078 79.2537 86.53 79.16L60.53 74.84V69.84H100.08C101.937 69.84 103.717 69.1025 105.03 67.7898C106.342 66.477 107.08 64.6965 107.08 62.84V7.00003C107.08 6.07909 106.898 5.1672 106.545 4.31662C106.192 3.46603 105.675 2.69347 105.023 2.0432C104.371 1.39292 103.597 0.877725 102.745 0.527121C101.893 0.176516 100.981 -0.00260268 100.06 2.8574e-05ZM55.86 74.47H51.21V69.82H55.86V74.47ZM102.4 62.84C102.4 63.4606 102.153 64.0558 101.715 64.4947C101.276 64.9335 100.681 65.18 100.06 65.18H7C6.69318 65.18 6.38937 65.1194 6.10603 65.0017C5.82269 64.884 5.56539 64.7115 5.3489 64.4941C5.1324 64.2766 4.96099 64.0186 4.84448 63.7347C4.72798 63.4509 4.66868 63.1468 4.67 62.84V7.00003C4.66736 6.69237 4.72568 6.38723 4.84159 6.10223C4.9575 5.81723 5.12871 5.55801 5.34533 5.33953C5.56195 5.12104 5.8197 4.94762 6.1037 4.82928C6.3877 4.71094 6.69233 4.65002 7 4.65003H100.11C100.416 4.65264 100.718 4.7155 101 4.83502C101.282 4.95454 101.537 5.12837 101.752 5.34659C101.966 5.56481 102.136 5.82314 102.25 6.10684C102.365 6.39054 102.423 6.69405 102.42 7.00003V62.84H102.4Z" fill="#39B54A"/>
</svg>
