<svg width="113" height="66" viewBox="0 0 113 66" fill="none" xmlns="http://www.w3.org/2000/svg">
<g clip-path="url(#clip0)">
<path d="M102.87 0H9.35C6.87104 0.00264705 4.49437 0.988583 2.74148 2.74148C0.988583 4.49437 0.00264705 6.87104 0 9.35V56.11C0.00264705 58.589 0.988583 60.9656 2.74148 62.7185C4.49437 64.4714 6.87104 65.4574 9.35 65.46H102.87C105.35 65.46 107.728 64.4749 109.481 62.7214C111.235 60.968 112.22 58.5898 112.22 56.11V9.35C112.22 6.87023 111.235 4.49202 109.481 2.73855C107.728 0.985086 105.35 0 102.87 0V0ZM107.55 56.11C107.547 57.3504 107.053 58.5392 106.176 59.4163C105.299 60.2934 104.11 60.7874 102.87 60.79H9.35C8.11052 60.7874 6.92271 60.2931 6.0472 59.4157C5.17169 58.5383 4.68 57.3495 4.68 56.11V9.35C4.68 8.11144 5.17202 6.92361 6.04781 6.04781C6.92361 5.17202 8.11144 4.68 9.35 4.68H102.87C104.109 4.68 105.298 5.17169 106.176 6.0472C107.053 6.92271 107.547 8.11052 107.55 9.35V56.11Z" fill="#39B54A"/>
<path d="M91.18 14H21C19.1435 14 17.363 14.7375 16.0503 16.0503C14.7375 17.363 14 19.1435 14 21V44.42C14 46.2765 14.7375 48.057 16.0503 49.3697C17.363 50.6825 19.1435 51.42 21 51.42H91.18C93.0365 51.42 94.817 50.6825 96.1297 49.3697C97.4425 48.057 98.18 46.2765 98.18 44.42V21C98.18 19.1435 97.4425 17.363 96.1297 16.0503C94.817 14.7375 93.0365 14 91.18 14ZM93.52 44.39C93.52 45.0106 93.2735 45.6058 92.8346 46.0446C92.3958 46.4835 91.8006 46.73 91.18 46.73H21C20.3794 46.73 19.7842 46.4835 19.3454 46.0446C18.9065 45.6058 18.66 45.0106 18.66 44.39V21C18.6705 20.3864 18.9217 19.8014 19.3594 19.3712C19.7971 18.9409 20.3863 18.6999 21 18.7H91.18C91.7937 18.6999 92.3829 18.9409 92.8206 19.3712C93.2584 19.8014 93.5095 20.3864 93.52 21V44.39Z" fill="#39B54A"/>
<path d="M86.5089 23.3799H25.7189C25.0983 23.3799 24.5031 23.6264 24.0643 24.0653C23.6254 24.5041 23.3789 25.0993 23.3789 25.7199V35.0699C23.3789 35.6905 23.6254 36.2857 24.0643 36.7245C24.5031 37.1633 25.0983 37.4099 25.7189 37.4099H32.7189C32.7189 38.0305 32.9654 38.6257 33.4043 39.0645C33.8431 39.5033 34.4383 39.7499 35.0589 39.7499C35.6795 39.7499 36.2747 39.5033 36.7135 39.0645C37.1524 38.6257 37.3989 38.0305 37.3989 37.4099H46.7489C46.7489 38.0305 46.9954 38.6257 47.4343 39.0645C47.8731 39.5033 48.4683 39.7499 49.0889 39.7499C49.7095 39.7499 50.3047 39.5033 50.7435 39.0645C51.1824 38.6257 51.4289 38.0305 51.4289 37.4099H60.7789C60.758 37.7294 60.8029 38.0498 60.9107 38.3512C61.0186 38.6527 61.1872 38.9288 61.4061 39.1624C61.625 39.3961 61.8895 39.5824 62.1832 39.7097C62.477 39.8371 62.7937 39.9028 63.1139 39.9028C63.4341 39.9028 63.7508 39.8371 64.0446 39.7097C64.3384 39.5824 64.6029 39.3961 64.8217 39.1624C65.0406 38.9288 65.2092 38.6527 65.3171 38.3512C65.425 38.0498 65.4698 37.7294 65.4489 37.4099H74.8089C74.788 37.7294 74.8329 38.0498 74.9407 38.3512C75.0486 38.6527 75.2172 38.9288 75.4361 39.1624C75.655 39.3961 75.9195 39.5824 76.2132 39.7097C76.507 39.8371 76.8237 39.9028 77.1439 39.9028C77.4641 39.9028 77.7808 39.8371 78.0746 39.7097C78.3684 39.5824 78.6329 39.3961 78.8517 39.1624C79.0706 38.9288 79.2392 38.6527 79.3471 38.3512C79.455 38.0498 79.4998 37.7294 79.4789 37.4099H86.4789C86.7857 37.4099 87.0895 37.3493 87.3729 37.2316C87.6562 37.1139 87.9135 36.9413 88.13 36.7239C88.3465 36.5065 88.5179 36.2485 88.6344 35.9646C88.7509 35.6808 88.8102 35.3767 88.8089 35.0699V25.7199C88.8116 25.1054 88.5714 24.5147 88.1406 24.0764C87.7099 23.6381 87.1234 23.3878 86.5089 23.3799ZM84.1689 32.7299H28.0589V28.0599H84.1689V32.7299Z" fill="#39B54A"/>
</g>
<defs>
<clipPath id="clip0">
<rect width="112.22" height="65.46" fill="white"/>
</clipPath>
</defs>
</svg>
