<svg width="66" height="75" viewBox="0 0 66 75" fill="none" xmlns="http://www.w3.org/2000/svg">
<g clip-path="url(#clip0)">
<path d="M54.9989 30.9097H48.4045V15.3762C48.2357 11.4125 46.5403 7.66711 43.6723 4.92207C40.8043 2.17704 36.9853 0.644531 33.0128 0.644531C29.0404 0.644531 25.2214 2.17704 22.3534 4.92207C19.4854 7.66711 17.79 11.4125 17.6212 15.3762V30.9097H10.9989C10.4159 30.9097 9.85684 31.141 9.4446 31.5527C9.03237 31.9644 8.80078 32.5227 8.80078 33.1049V37.4955C8.80508 43.5252 11.0629 49.3362 15.1321 53.7906C19.2013 58.2451 24.7889 61.0223 30.8008 61.5785V70.6096H19.8008C19.2413 70.6459 18.7166 70.8934 18.3331 71.302C17.9497 71.7105 17.7364 72.2495 17.7364 72.8095C17.7364 73.3694 17.9497 73.9084 18.3331 74.317C18.7166 74.7255 19.2413 74.9731 19.8008 75.0094H46.1971C46.4984 75.0289 46.8005 74.9865 47.0847 74.8848C47.3689 74.7831 47.6292 74.6242 47.8496 74.418C48.0699 74.2118 48.2455 73.9627 48.3655 73.686C48.4856 73.4093 48.5475 73.111 48.5475 72.8095C48.5475 72.5079 48.4856 72.2096 48.3655 71.9329C48.2455 71.6563 48.0699 71.4071 47.8496 71.2009C47.6292 70.9947 47.3689 70.8359 47.0847 70.7342C46.8005 70.6324 46.4984 70.59 46.1971 70.6096H35.2434V61.5692C41.2562 61.0132 46.8448 58.2363 50.9156 53.7821C54.9863 49.3278 57.2461 43.5168 57.2527 37.4862V33.1049C57.2503 32.5219 57.0166 31.9635 56.6029 31.5521C56.1892 31.1407 55.6291 30.9097 55.0453 30.9097H54.9989ZM21.9989 15.3762C21.9989 12.4626 23.1579 9.66838 25.2208 7.60819C27.2837 5.548 30.0815 4.3906 32.9989 4.3906C35.9163 4.3906 38.7142 5.548 40.7771 7.60819C42.84 9.66838 43.9989 12.4626 43.9989 15.3762V37.4955C43.9989 40.409 42.84 43.2032 40.7771 45.2634C38.7142 47.3236 35.9163 48.481 32.9989 48.481C30.0815 48.481 27.2837 47.3236 25.2208 45.2634C23.1579 43.2032 21.9989 40.409 21.9989 37.4955V15.3762ZM52.8008 37.4955C52.8008 42.7403 50.7145 47.7704 47.0009 51.4791C43.2874 55.1878 38.2507 57.2713 32.9989 57.2713C27.7471 57.2713 22.7105 55.1878 18.9969 51.4791C15.2833 47.7704 13.1971 42.7403 13.1971 37.4955V35.3002H17.6212V37.4955C17.5708 39.547 17.9318 41.588 18.6832 43.4981C19.4345 45.4082 20.5608 47.1489 21.9959 48.6177C23.431 50.0865 25.1458 51.2538 27.0395 52.0507C28.9331 52.8477 30.9672 53.2583 33.0221 53.2583C35.077 53.2583 37.1111 52.8477 39.0048 52.0507C40.8984 51.2538 42.6132 50.0865 44.0483 48.6177C45.4834 47.1489 46.6098 45.4082 47.3611 43.4981C48.1124 41.588 48.4735 39.547 48.423 37.4955V35.3002H52.8193L52.8008 37.4955Z" fill="#39B54A"/>
<path d="M10.9989 22.1192C11.5819 22.1192 12.141 21.8879 12.5532 21.4763C12.9655 21.0646 13.1971 20.5062 13.1971 19.924V8.93842C13.1971 8.3562 12.9655 7.79783 12.5532 7.38614C12.141 6.97445 11.5819 6.74316 10.9989 6.74316C10.4159 6.74316 9.85684 6.97445 9.4446 7.38614C9.03237 7.79783 8.80078 8.3562 8.80078 8.93842V19.924C8.80078 20.5062 9.03237 21.0646 9.4446 21.4763C9.85684 21.8879 10.4159 22.1192 10.9989 22.1192Z" fill="#39B54A"/>
<path d="M2.19814 0C1.61516 0 1.05605 0.231285 0.643822 0.642976C0.23159 1.05467 0 1.61304 0 2.19526L0 26.5098C-4.30144e-09 26.7981 0.0568567 27.0836 0.167324 27.3499C0.277791 27.6162 0.439705 27.8582 0.643822 28.0621C0.847938 28.2659 1.09026 28.4276 1.35695 28.538C1.62364 28.6483 1.90948 28.7051 2.19814 28.7051C2.48681 28.7051 2.77265 28.6483 3.03934 28.538C3.30603 28.4276 3.54835 28.2659 3.75247 28.0621C3.95658 27.8582 4.1185 27.6162 4.22897 27.3499C4.33943 27.0836 4.39629 26.7981 4.39629 26.5098V2.19526C4.39629 1.61304 4.1647 1.05467 3.75247 0.642976C3.34024 0.231285 2.78113 0 2.19814 0Z" fill="#39B54A"/>
<path d="M54.9989 6.73438C54.4151 6.73682 53.856 6.97017 53.444 7.38333C53.0321 7.79649 52.8008 8.35582 52.8008 8.93889V19.9244C52.8371 20.4832 53.085 21.0073 53.4941 21.3902C53.9032 21.7731 54.4429 21.9861 55.0036 21.9861C55.5643 21.9861 56.1039 21.7731 56.513 21.3902C56.9221 21.0073 57.17 20.4832 57.2063 19.9244V8.93889C57.2039 8.35497 56.9706 7.79566 56.5571 7.38276C56.1437 6.96986 55.5836 6.73681 54.9989 6.73438Z" fill="#39B54A"/>
<path d="M63.8036 0C63.515 0 63.2291 0.056782 62.9624 0.167104C62.6957 0.277426 62.4534 0.439128 62.2493 0.642976C62.0452 0.846825 61.8833 1.08883 61.7728 1.35517C61.6623 1.62151 61.6055 1.90697 61.6055 2.19526V26.5098C61.6055 27.092 61.8371 27.6504 62.2493 28.0621C62.6615 28.4738 63.2206 28.7051 63.8036 28.7051C64.3866 28.7051 64.9457 28.4738 65.3579 28.0621C65.7702 27.6504 66.0018 27.092 66.0018 26.5098V2.19526C66.0018 1.61304 65.7702 1.05467 65.3579 0.642976C64.9457 0.231285 64.3866 0 63.8036 0V0Z" fill="#39B54A"/>
</g>
<defs>
<clipPath id="clip0">
<rect width="66" height="75" fill="white"/>
</clipPath>
</defs>
</svg>
