<svg width="115" height="115" viewBox="0 0 115 115" fill="none" xmlns="http://www.w3.org/2000/svg">
<path d="M57.5 115C89.2564 115 115 89.2564 115 57.5C115 25.7436 89.2564 0 57.5 0C25.7436 0 0 25.7436 0 57.5C0 89.2564 25.7436 115 57.5 115Z" fill="#39B54A"/>
<path d="M72.5608 51.0954C72.049 51.8833 71.7972 52.8119 71.8408 53.7505C71.8844 54.689 72.2213 55.5903 72.804 56.3273C73.3868 57.0643 74.186 57.6 75.0891 57.859C75.9923 58.1179 76.954 58.0871 77.8387 57.7708C78.5046 57.538 79.1061 57.1513 79.5941 56.642C80.0822 56.1327 80.443 55.5153 80.6472 54.8401C81.0055 53.7854 80.9603 52.6352 80.5203 51.6119C80.0802 50.5885 79.2766 49.7645 78.2646 49.2989C77.2525 48.8334 76.1039 48.7594 75.0405 49.0912C73.9771 49.4229 73.0743 50.137 72.5066 51.0954H72.5608Z" fill="#FCFCFC"/>
<path d="M44.3398 35.8189C45.739 36.5682 47.3427 36.8456 48.9122 36.6099C50.4817 36.3741 51.9332 35.6378 53.0504 34.5106C54.1677 33.3833 54.8911 31.9254 55.1129 30.3538C55.3347 28.7822 55.043 27.1811 54.2813 25.7887C53.5196 24.3962 52.3286 23.287 50.8856 22.6261C49.4426 21.9652 47.8248 21.788 46.273 22.1208C44.7211 22.4537 43.3182 23.2787 42.2732 24.4733C41.2281 25.6678 40.5967 27.1678 40.473 28.7501C40.3684 30.1756 40.6777 31.601 41.3636 32.8549C42.0496 34.1089 43.083 35.1381 44.3398 35.8189Z" fill="white"/>
<path d="M57.0522 29.5097C57.9323 30.302 58.9832 30.8809 60.1233 31.2013C61.2633 31.5217 62.4619 31.575 63.6259 31.3572C64.79 31.1393 65.8882 30.6562 66.8352 29.9452C67.7823 29.2341 68.5527 28.3144 69.0867 27.2574C69.7301 25.9767 70.0029 24.5417 69.8743 23.1142C69.7458 21.6868 69.221 20.3236 68.3592 19.1784C67.4973 18.0332 66.3327 17.1515 64.9966 16.6328C63.6605 16.1141 62.2061 15.979 60.7973 16.2426C59.3885 16.5063 58.0814 17.1582 57.0233 18.125C55.9652 19.0918 55.1982 20.3349 54.8089 21.7143C54.4195 23.0936 54.4232 24.5543 54.8196 25.9317C55.2159 27.309 55.9892 28.5483 57.0522 29.5097Z" fill="white"/>
<path d="M82.1247 70.2678C82.1647 70.5987 82.3251 70.9033 82.5753 71.1235C82.8256 71.3437 83.1481 71.4641 83.4814 71.4617C83.8246 71.4376 84.1457 71.2841 84.38 71.0322C84.6142 70.7804 84.7441 70.4489 84.7432 70.1049C84.7432 69.6979 84.7432 69.3044 84.7432 68.911C84.6984 67.9892 84.5342 67.077 84.2548 66.1974C84.026 65.4319 83.7214 64.6911 83.3458 63.9859C82.4075 62.2608 81.0843 60.7752 79.479 59.6442C79.105 59.367 78.6997 59.1347 78.2714 58.9523C77.6637 58.661 76.9984 58.5098 76.3245 58.5098C75.6505 58.5098 74.9852 58.661 74.3775 58.9523C74.0564 59.0844 73.7514 59.2529 73.4685 59.4543C73.1039 59.6843 72.7549 59.9381 72.4237 60.2141C71.644 60.8424 70.9425 61.5621 70.3343 62.3578C69.2466 63.7474 68.4902 65.3669 68.1228 67.0929C67.9164 68.097 67.8209 69.1207 67.8379 70.1456C67.8372 70.4918 67.9689 70.8251 68.206 71.0774C68.4431 71.3296 68.7677 71.4816 69.1132 71.5024C69.4465 71.5048 69.7691 71.3844 70.0193 71.1642C70.2696 70.944 70.43 70.6394 70.47 70.3085C70.5852 68.8193 71.0501 67.3783 71.8268 66.1025V67.5542L68.8826 79.5074C68.7469 80.0229 68.6655 80.5521 69.6695 80.5521H72.1388L72.6001 90.5651C72.6363 90.952 72.8156 91.3115 73.103 91.5732C73.3903 91.835 73.765 91.98 74.1536 91.98C74.5423 91.98 74.9169 91.835 75.2043 91.5732C75.4916 91.3115 75.6709 90.952 75.7071 90.5651L76.2634 80.5385H76.4262L76.8875 90.5515C76.9237 90.9385 77.103 91.298 77.3904 91.5597C77.6777 91.8214 78.0524 91.9664 78.441 91.9664C78.8297 91.9664 79.2043 91.8214 79.4917 91.5597C79.779 91.298 79.9583 90.9385 79.9945 90.5515L80.5508 80.5249H82.9659C83.0952 80.5276 83.2234 80.501 83.3409 80.4469C83.4584 80.3929 83.5622 80.3128 83.6443 80.2129C83.7312 80.1115 83.7935 79.9914 83.8265 79.862C83.8594 79.7326 83.8621 79.5973 83.8342 79.4667L80.8222 67.4321V66.0753C81.5948 67.3431 82.0595 68.7743 82.1789 70.2542L82.1247 70.2678Z" fill="white"/>
<path d="M67.9896 80.0493L69.0072 75.6127L69.1429 72.8991C68.5149 72.7426 67.9568 72.3818 67.5565 71.8733C67.1561 71.3649 66.9362 70.7377 66.9313 70.0906C66.9076 68.8772 67.0306 67.6654 67.2976 66.4816C67.5967 65.2826 68.0529 64.1284 68.6544 63.049C69.009 62.405 69.4175 61.7923 69.8755 61.2173C69.9024 60.7111 69.9024 60.2039 69.8755 59.6977V46.7813C70.5096 48.1859 71.0049 49.6491 71.3544 51.1501C71.7935 50.2034 72.4806 49.3933 73.343 48.8056C74.2053 48.218 75.2107 47.8748 76.2523 47.8124C75.8459 46.1552 75.3013 44.535 74.6242 42.9687C73.8091 41.1278 72.7603 39.3995 71.5036 37.8266C70.6853 36.8108 69.7771 35.8708 68.7901 35.0181C68.266 34.6183 67.7177 34.2513 67.1484 33.9191C66.7154 33.6249 66.262 33.3619 65.7916 33.1321C64.2791 32.4622 62.6019 32.2555 60.972 32.538C59.342 32.8206 57.8323 33.5797 56.6334 34.7196L53.4043 37.5824C56.2309 39.6034 58.5526 42.2501 60.1882 45.316C61.2441 47.263 61.9686 49.3722 62.3319 51.5571C62.5711 53.0416 62.6756 54.5447 62.6439 56.048C62.6262 57.0486 62.2171 58.0024 61.5044 58.705C60.7917 59.4075 59.8321 59.8029 58.8314 59.8063C58.5252 59.7941 58.2209 59.7532 57.9223 59.6842C57.9223 59.6842 60.758 70.0228 60.9072 70.674C61.1243 71.5695 61.2057 73.3876 59.1299 73.3876H55.6972L55.4395 78.0277L55.9143 89.3568C56.0389 89.9702 56.3717 90.5217 56.8563 90.9178C57.341 91.3139 57.9477 91.5303 58.5736 91.5303C59.1995 91.5303 59.8062 91.3139 60.2909 90.9178C60.7755 90.5217 61.1083 89.9702 61.2329 89.3568L62.1962 70.362L62.9831 89.3568C63.1008 89.9777 63.4316 90.5381 63.9183 90.9412C64.405 91.3443 65.0172 91.5649 65.6492 91.5649C66.2811 91.5649 66.8933 91.3443 67.38 90.9412C67.8668 90.5381 68.1975 89.9777 68.3152 89.3568L68.7358 81.1076C68.6011 81.1101 68.468 81.0786 68.3487 81.016C68.2295 80.9534 68.1279 80.8617 68.0535 80.7494C67.9791 80.6371 67.9342 80.5079 67.9231 80.3736C67.9119 80.2394 67.9348 80.1045 67.9896 79.9815V80.0493Z" fill="white"/>
<path d="M58.7213 72.6412C58.9173 72.6412 59.1109 72.5988 59.2889 72.5168C59.4669 72.4348 59.6251 72.3153 59.7525 72.1663C59.8761 72.0119 59.9644 71.8323 60.0113 71.6401C60.0581 71.4479 60.0624 71.2478 60.0238 71.0538L54.9359 52.5881V49.6575C55.6562 50.8222 56.196 52.0894 56.5369 53.4157C56.7944 54.4314 56.9713 55.4657 57.0661 56.5092C57.0948 57.0885 57.3526 57.6327 57.7826 58.022C58.2126 58.4113 58.7797 58.6138 59.359 58.585C59.9383 58.5562 60.4825 58.2985 60.8718 57.8685C61.2611 57.4385 61.4636 56.8714 61.4349 56.2921C61.4349 55.5866 61.4349 54.9353 61.4349 54.1891C61.3901 53.2257 61.263 52.268 61.055 51.3263C60.6431 49.352 59.9195 47.4559 58.9113 45.7093C57.9102 43.9617 56.6577 42.3708 55.1937 40.9877C54.4749 40.3236 53.7135 39.7072 52.9143 39.1425C52.3118 38.6954 51.6664 38.3091 50.9877 37.9892L50.8113 37.9078C49.8166 37.4292 48.7268 37.1807 47.6229 37.1807C46.519 37.1807 45.4293 37.4292 44.4345 37.9078C43.7236 38.1862 43.0564 38.5654 42.4536 39.034C41.6781 39.5771 40.9393 40.1708 40.2421 40.8113C38.7549 42.1735 37.4751 43.7459 36.4431 45.4786C35.9207 46.3463 35.4671 47.2536 35.0864 48.1922C34.703 49.1119 34.4077 50.0659 34.2044 51.0414C34.0003 52.0045 33.8508 52.9784 33.7567 53.9584C33.6889 54.7318 33.7567 55.5187 33.7567 56.2921C33.763 56.8483 33.9813 57.3811 34.3669 57.782C34.7526 58.1828 35.2767 58.4214 35.8322 58.449C36.3878 58.4767 36.933 58.2914 37.3566 57.931C37.7802 57.5705 38.0504 57.062 38.112 56.5092C38.2067 55.4657 38.3836 54.4314 38.6411 53.4157C38.9908 52.0751 39.5396 50.7946 40.2692 49.6168V52.3303L35.1406 71.0673C35.1061 71.2572 35.1124 71.4521 35.1592 71.6393C35.206 71.8265 35.2922 72.0015 35.412 72.1528C35.5381 72.3042 35.6956 72.4263 35.8737 72.5106C36.0518 72.595 36.2461 72.6395 36.4431 72.6412H40.7034L41.4767 89.7772C41.5042 90.4362 41.782 91.06 42.2534 91.5213C42.7248 91.9827 43.3544 92.2469 44.0139 92.2601C44.6666 92.2578 45.2938 92.0066 45.7677 91.5579C46.2417 91.1092 46.5267 90.4966 46.5646 89.8451L47.4872 72.6412H47.7043L48.4777 89.7772C48.5055 90.4409 48.787 91.0685 49.2642 91.5305C49.7414 91.9926 50.3778 92.2537 51.042 92.2601C51.6947 92.2578 52.3219 92.0066 52.7958 91.5579C53.2697 91.1092 53.5547 90.4966 53.5927 89.8451L54.5289 72.6955L58.7213 72.6412Z" fill="white"/>
</svg>
