<svg width="115" height="115" viewBox="0 0 115 115" fill="none" xmlns="http://www.w3.org/2000/svg">
<path d="M57.5 115C89.2564 115 115 89.2564 115 57.5C115 25.7436 89.2564 0 57.5 0C25.7436 0 0 25.7436 0 57.5C0 89.2564 25.7436 115 57.5 115Z" fill="#39B54A"/>
<path d="M67.553 66.8616L66.7118 65.3691H40.7025L39.8613 66.8616H45.4105C44.6372 67.038 44.0538 67.4993 44.0538 68.0555C44.0538 68.6118 44.5286 68.9917 45.207 69.1952C44.9943 69.2711 44.8075 69.4056 44.6682 69.5833C44.5289 69.7611 44.4429 69.9746 44.4201 70.1993C44.4201 70.742 44.9628 71.2033 45.7769 71.3796C45.6 71.4654 45.4484 71.5954 45.3367 71.7571C45.2249 71.9187 45.1569 72.1065 45.1392 72.3022C45.1392 72.9535 45.9125 73.4826 46.903 73.564C46.8825 73.6671 46.8825 73.7731 46.903 73.8761C46.903 74.5681 47.812 75.1379 48.9246 75.1379H49.2366C49.2366 75.8027 50.1728 76.3454 51.2446 76.3454C51.5152 76.3455 51.7844 76.309 52.0451 76.2369C52.5357 76.6537 53.1584 76.8825 53.8022 76.8825C54.4459 76.8825 55.0686 76.6537 55.5592 76.2369C55.8197 76.3098 56.0891 76.3464 56.3597 76.3454C57.4315 76.3454 58.327 75.8027 58.3677 75.1379H58.6798C59.7787 75.1379 60.6878 74.5816 60.6878 73.8761C60.7094 73.7732 60.7094 73.6669 60.6878 73.564C61.6782 73.4826 62.4516 72.9535 62.4516 72.3022C62.4338 72.1065 62.3658 71.9187 62.2541 71.7571C62.1423 71.5954 61.9907 71.4654 61.8139 71.3796C62.5737 71.2033 63.1707 70.742 63.1707 70.1993C63.1479 69.9746 63.0618 69.7611 62.9225 69.5833C62.7832 69.4056 62.5964 69.2711 62.3837 69.1952C63.0757 68.9917 63.537 68.5576 63.537 68.0555C63.537 67.5535 62.9807 67.038 62.1802 66.8616H67.553Z" fill="white"/>
<path d="M87.3216 55.3831L88.2307 54.3383L89.0719 53.3615L95.4622 46.0078C95.6522 45.7771 95.4622 45.4922 94.9738 45.4922H74.6222C74.2016 45.4922 73.9438 45.7771 74.1338 46.0078L80.5106 53.3615L81.3518 54.3383L82.2609 55.3831H87.3216Z" fill="white"/>
<path d="M28.9395 66.875C29.6775 67.2215 30.4853 67.3933 31.3003 67.377C32.4041 67.4127 33.4882 67.0784 34.3802 66.4272L42.0595 60.1725V62.9946L41.5168 63.9715H65.9387L65.396 62.9946V59.969L69.7377 63.4152C70.6221 64.0493 71.689 64.3779 72.7768 64.3514H79.7778V59.467H74.6221C74.6221 59.467 63.4151 50.4716 63.1302 50.2003C60.4089 48.1277 57.0508 47.0675 53.6328 47.2018C50.1999 47.0868 46.8366 48.1871 44.1354 50.3088L28.2205 63.4559C26.8637 64.5278 27.2436 66.0609 28.9395 66.875Z" fill="white"/>
<path d="M65.3966 80.7555H72.9945C74.1342 80.7555 74.9482 80.0364 74.5548 79.3988L68.3272 68.2461H65.6136C65.5844 68.4292 65.5296 68.6073 65.4508 68.7752C65.347 68.9942 65.2096 69.1956 65.0438 69.3722C65.1777 69.6227 65.2476 69.9023 65.2473 70.1863C65.2336 70.4833 65.1562 70.7739 65.0205 71.0384C64.8847 71.3029 64.6937 71.5351 64.4604 71.7194C64.5304 71.9014 64.5672 72.0944 64.5689 72.2893C64.5083 72.7898 64.3045 73.2621 63.982 73.6496C63.6595 74.0371 63.232 74.3232 62.7509 74.4737C62.4829 74.9851 62.097 75.4253 61.6252 75.758C61.1533 76.0907 60.609 76.3062 60.0373 76.3867C59.5458 76.8425 58.9693 77.1968 58.3407 77.4297C57.7121 77.6625 57.0438 77.7691 56.374 77.7435C55.5756 78.1145 54.7036 78.3001 53.8233 78.2862C52.9478 78.2957 52.0811 78.1104 51.2861 77.7435C50.6163 77.7691 49.948 77.6625 49.3195 77.4297C48.6909 77.1968 48.1144 76.8425 47.6228 76.3867C47.0512 76.3062 46.5069 76.0907 46.035 75.758C45.5631 75.4253 45.1772 74.9851 44.9093 74.4737C44.4255 74.3278 43.9953 74.043 43.6721 73.6546C43.3488 73.2663 43.1468 72.7915 43.0912 72.2893C43.093 72.0944 43.1298 71.9014 43.1998 71.7194C42.969 71.5328 42.7799 71.3 42.6443 71.036C42.5088 70.772 42.43 70.4825 42.4128 70.1863C42.4126 69.9023 42.4825 69.6227 42.6164 69.3722C42.4505 69.1956 42.3132 68.9942 42.2093 68.7752C42.1306 68.6073 42.0758 68.4292 42.0465 68.2461H39.0616L32.8612 79.3581C32.4813 80.0364 33.2818 80.7148 34.4215 80.7148H42.0601V92.6137C42.0601 94.4318 44.4073 95.8835 47.2701 95.8835C50.1329 95.8835 52.4801 94.4182 52.4801 92.6137V80.7555H55.0037V92.6544C55.0037 94.4725 57.3373 95.9242 60.2001 95.9242C63.0629 95.9242 65.4101 94.4589 65.4101 92.6544V80.7555H65.3966Z" fill="white"/>
<path d="M84.772 68.3268C85.9795 68.3268 86.9835 67.7027 86.9835 66.9701V57.4727H82.5469V66.9701C82.5469 67.7434 83.5373 68.3268 84.772 68.3268Z" fill="white"/>
<path d="M64.2852 41.2725C64.2852 39.373 64.8686 34.4886 60.0656 32.3178C60.2575 32.1986 60.4204 32.0381 60.5424 31.848C60.6645 31.6579 60.7426 31.4429 60.7711 31.2188C60.7711 30.4319 59.6043 30.2148 59.0751 30.3233C59.0751 30.3233 58.7088 28.4103 55.5882 28.9666C55.4192 28.6134 55.1536 28.3153 54.8223 28.1066C54.491 27.8979 54.1075 27.7871 53.7159 27.7871C53.3243 27.7871 52.9408 27.8979 52.6095 28.1066C52.2782 28.3153 52.0126 28.6134 51.8436 28.9666C48.723 28.3425 48.3702 30.3233 48.3702 30.3233C47.8275 30.2148 46.6743 30.4319 46.6743 31.2188C46.7003 31.442 46.776 31.6566 46.8957 31.8467C47.0154 32.0369 47.1762 32.1978 47.3662 32.3178C42.5632 34.5293 43.1466 39.3594 43.1466 41.2725C43.1466 43.7825 39.6055 44.6102 39.6055 44.6102C40.813 48.4498 49.3471 45.7227 49.3471 45.7227C48.7722 45.5229 48.2527 45.1902 47.8307 44.7516C47.4087 44.3131 47.0961 43.7812 46.9185 43.1991C48.7623 44.8929 51.2004 45.7901 53.7023 45.6956C56.2043 45.7901 58.6424 44.8929 60.4862 43.1991C60.3085 43.7812 59.996 44.3131 59.574 44.7516C59.152 45.1902 58.6324 45.5229 58.0576 45.7227C58.0576 45.7227 66.5781 48.4363 67.7992 44.6102C67.7992 44.6102 64.2309 43.7825 64.2309 41.2725H64.2852Z" fill="white"/>
</svg>
