<svg width="115" height="115" viewBox="0 0 115 115" fill="none" xmlns="http://www.w3.org/2000/svg">
<path d="M57.5 115C89.2564 115 115 89.2564 115 57.5C115 25.7436 89.2564 0 57.5 0C25.7436 0 0 25.7436 0 57.5C0 89.2564 25.7436 115 57.5 115Z" fill="#39B54A"/>
<path d="M55.0854 58.654L53.4844 60.0107L56.6999 62.7243C56.9323 62.8941 57.2126 62.9856 57.5004 62.9856C57.7882 62.9856 58.0686 62.8941 58.3009 62.7243L64.732 57.2972L63.1175 55.9404L57.5004 60.6756L55.0854 58.654Z" fill="white"/>
<path d="M88.1906 84.7579H83.6183V49.7803C83.6216 49.6928 83.6472 49.6076 83.6926 49.5328C83.738 49.4579 83.8017 49.3958 83.8777 49.3524C83.9537 49.3089 84.0395 49.2856 84.1271 49.2845C84.2146 49.2834 84.301 49.3046 84.3781 49.3462C84.8965 49.6364 85.48 49.7904 86.074 49.7939C86.7073 49.7917 87.3277 49.6144 87.8665 49.2816C88.4052 48.9487 88.8414 48.4733 89.1268 47.908L89.3574 47.4331C89.7493 46.6553 89.8271 45.7566 89.5745 44.9231C89.3219 44.0896 88.7584 43.3852 88.0007 42.9558L83.6183 40.4593V30.0257C84.3752 29.7612 85.0139 29.2371 85.4211 28.5464C85.8283 27.8557 85.9776 27.0431 85.8427 26.2527C85.7077 25.4624 85.2971 24.7454 84.6838 24.229C84.0704 23.7126 83.294 23.4302 82.4922 23.4318H73.4018C72.5976 23.4236 71.8167 23.7014 71.1984 24.2156C70.58 24.7298 70.1645 25.447 70.026 26.2392C69.8874 27.0314 70.0348 27.847 70.4419 28.5406C70.849 29.2342 71.4893 29.7605 72.2485 30.0257V33.9197L59.1964 26.471C58.6794 26.1772 58.095 26.0228 57.5004 26.0228C56.9058 26.0228 56.3214 26.1772 55.8045 26.471L27.0002 42.9558C26.2425 43.3852 25.6789 44.0896 25.4264 44.9231C25.1738 45.7566 25.2515 46.6553 25.6434 47.4331L25.8741 47.908C26.0815 48.3226 26.3714 48.6905 26.726 48.9891C27.0806 49.2877 27.4925 49.5108 27.9364 49.6446C28.3851 49.7823 28.8573 49.8269 29.3239 49.7756C29.7906 49.7242 30.2418 49.5781 30.6499 49.3462L31.4097 48.912V84.7579H26.9188C26.0263 84.7498 25.1651 85.0868 24.5153 85.6987C23.8655 86.3106 23.4773 87.1499 23.4319 88.0413C23.4155 88.4987 23.4914 88.9547 23.6552 89.3821C23.819 89.8094 24.0672 90.1994 24.3851 90.5287C24.703 90.858 25.084 91.1198 25.5053 91.2985C25.9267 91.4772 26.3797 91.5692 26.8374 91.5689H88.0821C88.9746 91.5771 89.8357 91.24 90.4855 90.6281C91.1353 90.0162 91.5235 89.1769 91.569 88.2855C91.5853 87.8304 91.5102 87.3766 91.3481 86.9511C91.186 86.5255 90.9402 86.1368 90.6252 85.8079C90.3102 85.479 89.9324 85.2166 89.5143 85.0362C89.0961 84.8559 88.646 84.7612 88.1906 84.7579ZM73.4018 25.6976H82.4922C82.7921 25.7012 83.0785 25.8228 83.2893 26.0362C83.5001 26.2495 83.6183 26.5374 83.6183 26.8373C83.6183 27.136 83.4996 27.4224 83.2885 27.6336C83.0773 27.8448 82.7908 27.9634 82.4922 27.9634H73.4018C73.1019 27.9635 72.814 27.8452 72.6007 27.6344C72.3873 27.4236 72.2657 27.1372 72.2621 26.8373C72.2656 26.5361 72.3868 26.2483 72.5998 26.0353C72.8128 25.8224 73.1006 25.7011 73.4018 25.6976ZM74.5143 30.2428H81.2982V39.1568L74.5143 35.2493V30.2428ZM29.4966 47.3653C29.3636 47.4457 29.2149 47.4969 29.0606 47.5157C28.9062 47.5344 28.7496 47.5201 28.6012 47.4738C28.4521 47.429 28.3138 47.3541 28.1948 47.2537C28.0758 47.1534 27.9786 47.0297 27.9092 46.8904L27.6786 46.4155C27.5498 46.1564 27.5244 45.858 27.6076 45.5808C27.6907 45.3037 27.8762 45.0685 28.1263 44.9231L56.9848 28.4926C57.1556 28.3924 57.35 28.3396 57.5479 28.3396C57.7459 28.3396 57.9402 28.3924 58.111 28.4926L86.8338 44.9367C87.084 45.0821 87.2694 45.3173 87.3526 45.5944C87.4357 45.8716 87.4103 46.17 87.2816 46.4291L87.0374 46.904C86.9688 47.0415 86.8735 47.164 86.757 47.2641C86.6405 47.3643 86.5052 47.4402 86.359 47.4874C86.0577 47.5682 85.7368 47.5293 85.4635 47.3788L59.1964 32.3322C58.6794 32.0385 58.095 31.884 57.5004 31.884C56.9058 31.884 56.3214 32.0385 55.8045 32.3322L29.4966 47.3653ZM33.6484 47.6231L56.9848 34.2996C57.1577 34.2058 57.3512 34.1566 57.5479 34.1566C57.7446 34.1566 57.9381 34.2058 58.111 34.2996L81.4067 47.6231V84.7579H33.6484V47.6231ZM88.1906 89.3031H26.8374C26.5362 89.2996 26.2484 89.1784 26.0354 88.9654C25.8224 88.7524 25.7012 88.4646 25.6977 88.1634C25.7013 87.8635 25.8229 87.5771 26.0363 87.3663C26.2496 87.1555 26.5374 87.0373 26.8374 87.0373H88.1906C88.4905 87.0373 88.7784 87.1555 88.9917 87.3663C89.2051 87.5771 89.3267 87.8635 89.3303 88.1634C89.3268 88.4646 89.2056 88.7524 88.9926 88.9654C88.7796 89.1784 88.4918 89.2996 88.1906 89.3031Z" fill="white"/>
<path d="M40.4593 80.2119H35.9141V82.4777H40.4593V80.2119Z" fill="white"/>
<path d="M79.0862 80.2119H74.541V82.4777H79.0862V80.2119Z" fill="white"/>
<path d="M45.0041 80.2119H42.7383V82.4777H45.0041V80.2119Z" fill="white"/>
<path d="M72.2619 80.2119H69.9961V82.4777H72.2619V80.2119Z" fill="white"/>
<path d="M71.5697 49.6304L58.002 43.9591C57.8653 43.8985 57.7174 43.8672 57.5678 43.8672C57.4183 43.8672 57.2704 43.8985 57.1337 43.9591L43.4167 49.6304C43.2098 49.7188 43.0336 49.8664 42.9105 50.0547C42.7874 50.2431 42.7227 50.4636 42.7247 50.6886V60.7423C42.7171 62.383 43.0359 64.0088 43.6625 65.5252C44.289 67.0416 45.2109 68.4182 46.3745 69.5749L56.6859 79.8864C56.9009 80.0936 57.1878 80.2095 57.4864 80.2095C57.785 80.2095 58.072 80.0936 58.2869 79.8864L68.5984 69.5749C69.7619 68.4182 70.6838 67.0416 71.3104 65.5252C71.937 64.0088 72.2557 62.383 72.2481 60.7423V50.6886C72.2501 50.4636 72.1855 50.2431 72.0623 50.0547C71.9392 49.8664 71.7631 49.7188 71.5562 49.6304H71.5697ZM69.9959 60.7423C69.9975 62.0859 69.7334 63.4165 69.2188 64.6576C68.7042 65.8987 67.9493 67.0257 66.9974 67.9739L57.5 77.4713L48.0026 67.9739C47.0507 67.0257 46.2957 65.8987 45.7811 64.6576C45.2665 63.4165 45.0025 62.0859 45.0041 60.7423V51.4484L57.5 46.2384L69.9959 51.4484V60.7423Z" fill="white"/>
<path d="M57.0664 47.6505L46.8364 51.9107C46.6343 51.9919 46.4601 52.13 46.3349 52.3082C46.2096 52.4864 46.1388 52.6971 46.1309 52.9147V60.7026C46.1334 61.9011 46.3746 63.087 46.8405 64.1912C47.3064 65.2954 47.9876 66.2957 48.8444 67.1337L56.7408 75.0301C56.9558 75.2374 57.2427 75.3532 57.5413 75.3532C57.8399 75.3532 58.1269 75.2374 58.3418 75.0301L66.2382 67.1337C67.095 66.2957 67.7762 65.2954 68.2421 64.1912C68.708 63.087 68.9492 61.9011 68.9518 60.7026V52.9147C68.9529 52.6916 68.8877 52.4732 68.7645 52.2873C68.6413 52.1013 68.4657 51.956 68.2598 51.87L57.9348 47.6505C57.798 47.5899 57.6502 47.5586 57.5006 47.5586C57.3511 47.5586 57.2032 47.5899 57.0664 47.6505ZM66.5638 53.7152V60.7433C66.5654 61.638 66.39 62.5242 66.0477 63.3508C65.7055 64.1774 65.203 64.9282 64.5694 65.5599L57.4735 72.6558L50.3776 65.5599C49.7439 64.9282 49.2415 64.1774 48.8992 63.3508C48.5569 62.5242 48.3815 61.638 48.3831 60.7433V53.7152L57.4735 49.9298L66.5638 53.7152Z" fill="white"/>
</svg>
