<svg width="115" height="115" viewBox="0 0 115 115" fill="none" xmlns="http://www.w3.org/2000/svg">
<path d="M57.5 115C89.2564 115 115 89.2564 115 57.5C115 25.7436 89.2564 0 57.5 0C25.7436 0 0 25.7436 0 57.5C0 89.2564 25.7436 115 57.5 115Z" fill="#39B54A"/>
<path d="M87.8376 42.4402C88.7048 42.4402 89.5365 42.0957 90.1497 41.4825C90.7629 40.8693 91.1074 40.0376 91.1074 39.1704V28.3162C91.1074 27.449 90.7629 26.6173 90.1497 26.0041C89.5365 25.3909 88.7048 25.0464 87.8376 25.0464H72.5468C71.6796 25.0464 70.8479 25.3909 70.2347 26.0041C69.6215 26.6173 69.277 27.449 69.277 28.3162V39.2382C69.277 40.1054 69.6215 40.9371 70.2347 41.5503C70.8479 42.1635 71.6796 42.508 72.5468 42.508H75.8302V44.6924H73.6458V46.809H79.0728V57.6632H74.6226C73.7434 56.7926 72.6618 56.1539 71.4749 55.8044C71.4814 55.6959 71.4814 55.5872 71.4749 55.4788C71.4797 53.5875 70.8697 51.7459 69.7369 50.2314C68.6041 48.7169 67.0098 47.6115 65.1942 47.0819C63.3786 46.5522 61.44 46.6269 59.6706 47.2946C57.9011 47.9624 56.3966 49.1872 55.3836 50.7843C54.2995 50.2925 53.1258 50.0288 51.9355 50.0097C50.7452 49.9906 49.5636 50.2164 48.4643 50.6732C47.3649 51.13 46.3712 51.808 45.545 52.665C44.7187 53.5221 44.0774 54.5398 43.6611 55.6551C42.8476 55.8296 42.0684 56.1367 41.3546 56.5642H33.214V53.3622H37.5828C38.4512 53.3586 39.2829 53.0111 39.8957 52.3957C40.5085 51.7804 40.8526 50.9473 40.8526 50.0788V28.2483C40.8526 27.3811 40.5081 26.5494 39.8949 25.9362C39.2817 25.323 38.45 24.9785 37.5828 24.9785H26.7286C25.8614 24.9785 25.0297 25.323 24.4165 25.9362C23.8033 26.5494 23.4588 27.3811 23.4588 28.2483V50.0788C23.4588 50.9473 23.8028 51.7804 24.4157 52.3957C25.0285 53.0111 25.8601 53.3586 26.7286 53.3622H31.0703V58.7893H39.0209C38.5548 59.4826 38.2064 60.2482 37.9898 61.0551H33.2547V73.0625H28.8859C28.0174 73.0625 27.1843 73.4066 26.5689 74.0194C25.9536 74.6322 25.6061 75.4639 25.6025 76.3323V86.1689H23.4316V89.4388C23.4316 90.306 23.7761 91.1377 24.3893 91.7509C25.0026 92.3641 25.8343 92.7086 26.7015 92.7086H44.1631C44.6012 92.714 45.0359 92.6318 45.4416 92.4667C45.8474 92.3016 46.216 92.0569 46.5258 91.7471C46.8355 91.4374 47.0802 91.0688 47.2453 90.663C47.4104 90.2572 47.4927 89.8225 47.4872 89.3845V86.1147H45.2621V76.2781C45.2585 75.4096 44.911 74.5779 44.2956 73.9651C43.6803 73.3523 42.8472 73.0082 41.9787 73.0082H35.4391V63.1852H37.6235C37.6271 65.21 38.433 67.1508 39.8647 68.5826C41.2965 70.0143 43.2373 70.8203 45.2621 70.8238H69.277C71.1133 70.8201 72.8871 70.1561 74.2745 68.953C75.662 67.7499 76.5704 66.088 76.8342 64.2706H81.2844V73.0082H73.6458V92.6543H91.1074V73.0082H83.4688V62.0862H76.8206C76.7127 61.3308 76.4836 60.5978 76.1422 59.9154H81.2844V46.809H86.7115V44.6246H84.5542V42.4402H87.8376ZM38.7089 42.4402H25.6025V31.586H38.7089V42.4402ZM26.7015 27.1358H37.6235C37.9113 27.1358 38.1874 27.2501 38.391 27.4537C38.5945 27.6572 38.7089 27.9333 38.7089 28.2212V29.3202H25.6025V28.2212C25.606 27.9321 25.7234 27.656 25.9291 27.4529C26.1348 27.2497 26.4123 27.1358 26.7015 27.1358ZM25.6025 50.0517V44.6246H38.7089V50.0517C38.7107 50.1953 38.6839 50.3379 38.6302 50.4712C38.5765 50.6045 38.4968 50.7257 38.3958 50.828C38.2948 50.9302 38.1746 51.0114 38.042 51.0667C37.9094 51.1221 37.7672 51.1507 37.6235 51.1507H26.7693C26.4778 51.1507 26.1983 51.0349 25.9922 50.8288C25.7861 50.6227 25.6703 50.3431 25.6703 50.0517H25.6025ZM45.2621 89.3981C45.2621 89.5417 45.2336 89.684 45.1782 89.8166C45.1228 89.9492 45.0416 90.0694 44.9394 90.1704C44.8372 90.2714 44.7159 90.351 44.5827 90.4048C44.4494 90.4585 44.3068 90.4853 44.1631 90.4835H26.7015C26.4123 90.4835 26.1348 90.3696 25.9291 90.1664C25.7234 89.9632 25.606 89.6872 25.6025 89.3981V88.3126H45.2621V89.3981ZM43.0777 76.2916V86.1282H27.7869V76.2781C27.7869 76.1344 27.8154 75.9921 27.8708 75.8595C27.9262 75.727 28.0073 75.6067 28.1096 75.5057C28.2118 75.4048 28.3331 75.3251 28.4663 75.2713C28.5996 75.2176 28.7422 75.1909 28.8859 75.1926H41.9787C42.1224 75.1909 42.265 75.2176 42.3982 75.2713C42.5315 75.3251 42.6528 75.4048 42.755 75.5057C42.8572 75.6067 42.9384 75.727 42.9938 75.8595C43.0492 75.9921 43.0777 76.1344 43.0777 76.2781V76.2916ZM75.8302 90.4699V83.9303H88.923V90.4699H75.8302ZM88.923 81.7459H75.8302V75.1926H88.923V81.7459ZM69.277 68.6394H45.2621C44.5494 68.6831 43.8351 68.5859 43.1599 68.3535C42.4848 68.1211 41.862 67.758 41.3272 67.2849C40.7924 66.8118 40.356 66.2381 40.0429 65.5963C39.7299 64.9546 39.5463 64.2575 39.5026 63.5448C39.459 62.8321 39.5561 62.1178 39.7885 61.4426C40.0209 60.7675 40.384 60.1447 40.8571 59.6099C41.3302 59.0751 41.904 58.6386 42.5457 58.3256C43.1875 58.0125 43.8846 57.8289 44.5973 57.7853L45.3164 57.7039L45.5199 56.9983C45.8006 56.0303 46.3012 55.1402 46.9827 54.3976C47.6643 53.655 48.5082 53.08 49.4487 52.7174C50.3892 52.3549 51.4007 52.2147 52.4044 52.3077C53.408 52.4007 54.3765 52.7244 55.2344 53.2536L56.2791 53.9049L56.7947 52.7923C57.4261 51.4504 58.4941 50.3624 59.824 49.706C61.1539 49.0497 62.6671 48.8638 64.1163 49.1789C65.5655 49.4939 66.865 50.2912 67.8024 51.4405C68.7398 52.5897 69.2596 54.0229 69.277 55.5059C69.2736 55.8421 69.2464 56.1776 69.1956 56.5099L69.0192 57.5953L70.1046 57.7581C71.5439 57.8679 72.8807 58.5449 73.8209 59.6403C74.7611 60.7357 75.2276 62.1597 75.1179 63.599C75.0081 65.0384 74.3311 66.3752 73.2357 67.3154C72.1403 68.2555 70.7163 68.7221 69.277 68.6123V68.6394ZM72.5468 27.1358H87.8376C88.1255 27.1358 88.4016 27.2501 88.6051 27.4537C88.8087 27.6572 88.923 27.9333 88.923 28.2212V35.8598H71.4614V28.2483C71.4614 27.9605 71.5757 27.6844 71.7793 27.4808C71.9828 27.2773 72.2589 27.1629 72.5468 27.1629V27.1358ZM71.4614 39.1432V38.0442H88.923V39.1432C88.923 39.4311 88.8087 39.7072 88.6051 39.9107C88.4016 40.1143 88.1255 40.2286 87.8376 40.2286H72.5468C72.2589 40.2286 71.9828 40.1143 71.7793 39.9107C71.5757 39.7072 71.4614 39.4311 71.4614 39.1432ZM82.3155 44.5703H78.0146V42.4402H82.3698L82.3155 44.5703Z" fill="white"/>
</svg>
