<svg xmlns="http://www.w3.org/2000/svg" viewBox="0 0 44.67 37.96"><defs><style>.cls-1{fill:#39b54a;}</style></defs><title>giga-box</title><g id="Layer_2" data-name="Layer 2"><g id="Navigation_Bar" data-name="Navigation Bar"><path class="cls-1" d="M22.3,38H2.62A2.35,2.35,0,0,1,0,35.35V22.84a2.37,2.37,0,0,1,2.66-2.65c6.85,0,13.7,0,20.55,0,.69,0,.94-.16.92-.89-.05-1.87,0-3.75,0-5.63a3.05,3.05,0,0,1,3.3-3.19,3,3,0,0,1,3.23,3.19c0,1.92,0,3.85,0,5.77,0,.58.19.75.76.75,3.56,0,7.12,0,10.68,0a2.35,2.35,0,0,1,2.59,2.58q0,6.32,0,12.65A2.33,2.33,0,0,1,42.12,38ZM3.53,26.89h.06c0,.56,0,1.12,0,1.68s.13.64.58.64c1.14,0,2.28,0,3.43,0,.44,0,.59-.2.58-.63,0-1.12,0-2.23,0-3.35,0-.45-.18-.61-.61-.59s-1.17,0-1.75,0-1.68-.21-2,.16S3.59,26.17,3.53,26.89Zm9.69-2.24c-.59,0-1.17,0-1.75,0-.41,0-.57.16-.57.56,0,1.14,0,2.28,0,3.43,0,.46.22.58.63.58,1.12,0,2.23,0,3.35,0,.43,0,.61-.17.61-.61,0-1.12,0-2.24,0-3.35,0-.43-.15-.63-.6-.61S13.78,24.64,13.22,24.65Z"/><path class="cls-1" d="M39.64,13.6a12.3,12.3,0,0,0-5-9.68,11.89,11.89,0,0,0-8.38-2.39,12.37,12.37,0,0,0-11.22,12,1.12,1.12,0,0,1-.26.08c-1.15.08-1.15.08-1.1-1.06A13.7,13.7,0,0,1,40.8,10.87,13,13,0,0,1,41,12.75c.07.93,0,.93-.89.9Z"/><path class="cls-1" d="M34.71,13.59c-.11-.55-.18-1.08-.31-1.6a7.22,7.22,0,0,0-14.18.76c-.06.4.05.94-.71.93s-.87-.2-.82-.88A8.74,8.74,0,0,1,36,12.06a2.25,2.25,0,0,1,.06.36C36.18,13.72,36.15,13.76,34.71,13.59Z"/></g></g></svg>
