<svg xmlns="http://www.w3.org/2000/svg" viewBox="0 0 42 38.5"><defs><style>.cls-1{fill:#39b54a;}</style></defs><title>home-mobile</title><g id="Layer_2" data-name="Layer 2"><g id="Navigation_Bar" data-name="Navigation Bar"><path class="cls-1" d="M41.7,17.71,21.57.21a.88.88,0,0,0-1.14,0L.3,17.71a.88.88,0,0,0-.24,1,.87.87,0,0,0,.82.57H5.25V37.62a.87.87,0,0,0,.88.88H35.87a.87.87,0,0,0,.88-.88V19.25h4.37a.87.87,0,0,0,.82-.57A.88.88,0,0,0,41.7,17.71Zm-5.83-.21a.87.87,0,0,0-.87.87V36.75H7V18.37a.87.87,0,0,0-.87-.87H3.21L21,2,38.79,17.5Z"/></g></g></svg>
