<svg xmlns="http://www.w3.org/2000/svg" viewBox="0 0 42 38.5">
    <defs><style>.cls-1{fill:#39b54a;}</style>
    </defs>
    <title>fibre-mobile</title>
    <g id="Layer_2" data-name="Layer 2">
        <g id="Layer_1-2" data-name="Layer 1">
            <path class="cls-1" d="M41.7,17.7,21.6.2a.9.9,0,0,0-1.2,0L.3,17.7a.8.8,0,0,0-.2,1,.8.8,0,0,0,.8.5H5.2V37.6a.9.9,0,0,0,.9.9H35.9a.8.8,0,0,0,.8-.9V19.2h4.4a.8.8,0,0,0,.8-.5.8.8,0,0,0-.2-1m-5.8-.2a.9.9,0,0,0-.9.9V36.7H7V18.4a.9.9,0,0,0-.9-.9H3.2L21,2,38.8,17.5Z"/>
            <path class="cls-1" d="M21,28a1.8,1.8,0,0,0-1.8,1.7A1.8,1.8,0,0,0,21,31.5a1.7,1.7,0,0,0,1.7-1.8A1.7,1.7,0,0,0,21,28"/>
            <path class="cls-1" d="M21,24.5a5.3,5.3,0,0,0-4.2,2.1.8.8,0,0,0,.2,1.2l.5.2a.8.8,0,0,0,.7-.4,3.7,3.7,0,0,1,5.6,0,.9.9,0,0,0,1.4-1A5.3,5.3,0,0,0,21,24.5"/>
            <path class="cls-1" d="M21,21a8.7,8.7,0,0,0-6.7,3.1.9.9,0,0,0,.1,1.2.9.9,0,0,0,1.3-.1A6.7,6.7,0,0,1,21,22.7a6.9,6.9,0,0,1,5.3,2.5.9.9,0,0,0,.7.3l.6-.2a.9.9,0,0,0,.1-1.2A8.7,8.7,0,0,0,21,21"/>
            <path class="cls-1" d="M11.9,21.6a.9.9,0,0,0,0,1.2.7.7,0,0,0,.6.2.9.9,0,0,0,.7-.3,10.4,10.4,0,0,1,15.6,0,.9.9,0,1,0,1.3-1.1,12.1,12.1,0,0,0-18.2,0"/>
        </g>
    </g>
</svg>
