<svg xmlns="http://www.w3.org/2000/svg" viewBox="0 0 28.3 34.6"><defs><style>.cls-1{fill:#39b54a;}</style></defs><title>securenet-mobile</title><g id="Layer_2" data-name="Layer 2"><g id="Layer_1-2" data-name="Layer 1"><path class="cls-1" d="M28.3,6.1a.7.7,0,0,0-.5-.7l-1.5-.2A26.7,26.7,0,0,1,14.6.1h-.8A27.1,27.1,0,0,1,2,5.2L.6,5.4a.7.7,0,0,0-.6.7v5.1c0,7,2,13.6,6.9,18.6A18.6,18.6,0,0,0,14,34.5h.4a18.6,18.6,0,0,0,7-4.7c4.9-5,6.9-11.6,6.9-18.6ZM27,11.2c0,7.3-2.2,13.2-6.5,17.6a20,20,0,0,1-6.3,4.4,18.9,18.9,0,0,1-6.3-4.4C3.5,24.4,1.3,18.5,1.3,11.2V6.6h.9a28.2,28.2,0,0,0,12-5,27.3,27.3,0,0,0,11.9,5H27Z"/><path class="cls-1" d="M25.1,7.7A29.6,29.6,0,0,1,14.5,3.4a.9.9,0,0,0-.7,0A30.8,30.8,0,0,1,3.2,7.7c-.3,0-.5.3-.5.7v3.5a.7.7,0,0,0,.7.7h0a.8.8,0,0,0,.7-.7c0-.2-.1-3-.1-3A32.6,32.6,0,0,0,14.2,4.8,33,33,0,0,0,24.3,8.9v2.3c0,10.1-5,16.6-10.1,19-4.3-2-8.2-6.7-9.6-13.1,0-.4-.4-.6-.8-.5a.6.6,0,0,0-.5.8c1.5,7,6,12.2,10.6,14.2h.5c5.9-2.6,11.2-9.7,11.2-20.4V8.4c0-.4-.2-.7-.5-.7"/><path class="cls-1" d="M14.2,16.6a2.1,2.1,0,0,0-2.1,2,2.2,2.2,0,0,0,2.1,2.1,2.1,2.1,0,0,0,2-2.1,2,2,0,0,0-2-2m0,2.7a.7.7,0,0,1-.7-.7.7.7,0,0,1,.7-.6.6.6,0,0,1,.6.6.7.7,0,0,1-.6.7"/><path class="cls-1" d="M14.2,9.9a3.4,3.4,0,0,0-3.4,3.3v.7h-.7a.7.7,0,0,0-.6.7v8.1a.7.7,0,0,0,.6.7h8.1a.7.7,0,0,0,.7-.7V14.6a.7.7,0,0,0-.7-.7h-.6v-.7a3.4,3.4,0,0,0-3.4-3.3m-2.1,3.3a2.1,2.1,0,0,1,2.1-2,2,2,0,0,1,2,2v.7H12.1ZM17.6,22H10.8V15.3h6.8Z"/></g></g></svg>
