<svg xmlns="http://www.w3.org/2000/svg" viewBox="0 0 54.7 41.5"><defs><style>.cls-1{fill:#39b54a;}</style></defs><title>router-mobile</title><g id="Layer_2" data-name="Layer 2"><g id="Layer_1-2" data-name="Layer 1"><path class="cls-1" d="M49,41.5H5.7A5.7,5.7,0,0,1,0,35.9V31.3a5.8,5.8,0,0,1,5.7-5.7H49a5.8,5.8,0,0,1,5.7,5.7v4.6A5.7,5.7,0,0,1,49,41.5M5.7,27.9a3.4,3.4,0,0,0-3.4,3.4v4.6a3.4,3.4,0,0,0,3.4,3.4H49a3.4,3.4,0,0,0,3.4-3.4V31.3A3.4,3.4,0,0,0,49,27.9Z"/><path class="cls-1" d="M39.9,27.9a1.2,1.2,0,0,1-1.2-1.2V10.8a1.1,1.1,0,0,1,1.2-1.1A1.1,1.1,0,0,1,41,10.8V26.7a1.1,1.1,0,0,1-1.1,1.2"/><path class="cls-1" d="M14.8,32.4a1.1,1.1,0,0,1,1.1,1.2,1.1,1.1,0,1,1-2.2,0,1.1,1.1,0,0,1,1.1-1.2"/><path class="cls-1" d="M21.6,32.4a1.2,1.2,0,0,1,1.2,1.2,1.1,1.1,0,0,1-1.2,1.1,1.1,1.1,0,0,1-1.1-1.1,1.1,1.1,0,0,1,1.1-1.2"/><path class="cls-1" d="M28.5,32.4a1.1,1.1,0,0,1,1.1,1.2,1.1,1.1,0,0,1-1.1,1.1,1.1,1.1,0,0,1-1.2-1.1,1.2,1.2,0,0,1,1.2-1.2"/><path class="cls-1" d="M46.7,34.7H35.3a1.1,1.1,0,0,1-1.1-1.1,1.1,1.1,0,0,1,1.1-1.2H46.7a1.1,1.1,0,0,1,1.1,1.2,1.1,1.1,0,0,1-1.1,1.1"/><path class="cls-1" d="M36.6,15.2c-.3,0-.5-.2-.8-.4a5.8,5.8,0,0,1,0-8,1,1,0,0,1,1.6,0,1,1,0,0,1,0,1.6,3.4,3.4,0,0,0,0,4.8,1,1,0,0,1,0,1.6.9.9,0,0,1-.8.4"/><path class="cls-1" d="M43.1,15.2a1.2,1.2,0,0,1-.8-.4,1,1,0,0,1,0-1.6,3.4,3.4,0,0,0,0-4.8,1,1,0,0,1,0-1.6,1,1,0,0,1,1.6,0,5.6,5.6,0,0,1,0,8,.9.9,0,0,1-.8.4"/><path class="cls-1" d="M33.4,18.4a.9.9,0,0,1-.8-.4,10.1,10.1,0,0,1,0-14.4,1,1,0,0,1,1.6,0,1,1,0,0,1,0,1.6,7.9,7.9,0,0,0,0,11.2,1,1,0,0,1,0,1.6.9.9,0,0,1-.8.4"/><path class="cls-1" d="M46.3,18.4a.9.9,0,0,1-.8-.4,1.2,1.2,0,0,1,0-1.6,7.9,7.9,0,0,0,0-11.2,1.2,1.2,0,0,1,0-1.6,1,1,0,0,1,1.6,0,10.1,10.1,0,0,1,0,14.4.9.9,0,0,1-.8.4"/><path class="cls-1" d="M30.2,21.6a1.1,1.1,0,0,1-.8-.3,14.8,14.8,0,0,1,0-21A1.2,1.2,0,0,1,31,.3a1.2,1.2,0,0,1,0,1.6,12.6,12.6,0,0,0,0,17.8,1.2,1.2,0,0,1,0,1.6,1.1,1.1,0,0,1-.8.3"/><path class="cls-1" d="M49.5,21.6a1.1,1.1,0,0,1-.8-.3,1.2,1.2,0,0,1,0-1.6,12.6,12.6,0,0,0,0-17.8,1.2,1.2,0,0,1,0-1.6,1.2,1.2,0,0,1,1.6,0,14.8,14.8,0,0,1,0,21,1.1,1.1,0,0,1-.8.3"/></g></g></svg>
