<svg width="80" height="80" viewBox="0 0 80 80" fill="none" xmlns="http://www.w3.org/2000/svg">
<circle cx="40" cy="40" r="40" fill="white"/>
<path d="M52.958 40.2075L51.4995 38.748C56.2663 33.98 56.2652 26.2253 51.4973 21.4585L52.958 20C58.5301 25.5699 58.5301 34.6376 52.958 40.2075ZM48.9751 36.2247L50.4336 37.6865C54.6138 33.5052 54.6138 26.7024 50.4336 22.5233L48.9751 23.9817C52.35 27.3555 52.35 32.8509 48.9751 36.2247ZM47.8314 35.0809C50.5768 32.3366 50.5768 27.8687 47.8302 25.1255L46.3718 26.5839C48.3141 28.5263 48.3141 31.6835 46.3718 33.6213L47.8314 35.0809ZM28.639 21.4585L27.1783 20C21.6072 25.5699 21.6072 34.6376 27.1783 40.2075L28.6367 38.748C23.8699 33.9823 23.8711 26.2264 28.639 21.4585ZM29.7004 37.6865L31.16 36.2247C27.7851 32.8509 27.7851 27.3589 31.16 23.9817L29.7004 22.5221C25.519 26.7013 25.519 33.5052 29.7004 37.6865ZM32.3038 35.0809L33.7634 33.6213C31.8232 31.6801 31.8232 28.5229 33.7645 26.5839L32.3049 25.1255C29.5594 27.8721 29.5594 32.3377 32.3038 35.0809ZM48.4585 55.7092H43.4402L40.4308 33.9631C41.8328 33.7826 42.9202 32.5983 42.9202 31.1466C42.9202 29.5719 41.6422 28.2951 40.0676 28.2951C38.4918 28.2951 37.2149 29.5731 37.2149 31.1466C37.2149 32.5983 38.3023 33.7826 39.7032 33.9631L36.6949 55.7092H31.6766C30.4911 55.7092 29.5312 56.6714 29.5312 57.8546C29.5312 59.0401 30.4922 60 31.6766 60H48.4596C49.6451 60 50.605 59.0367 50.605 57.8546C50.605 56.6714 49.6451 55.7092 48.4585 55.7092Z" fill="#2CB34A"/>
</svg>
