<svg width="80" height="80" viewBox="0 0 80 80" fill="none" xmlns="http://www.w3.org/2000/svg">
<circle cx="40" cy="40" r="40" fill="white"/>
<path d="M54.6168 50.3125C54.939 50.3125 55.2002 50.0501 55.2002 49.7265V35.664C55.2002 34.9646 54.9288 34.2492 54.4361 33.6496L50.1097 28.3845C49.8831 28.1086 49.6225 27.8761 49.3396 27.691C49.3569 27.5119 49.3668 27.331 49.3668 27.1485V20.5859C49.3668 20.2623 49.1056 20 48.7834 20C48.4613 20 48.2001 20.2623 48.2001 20.5859C48.2001 20.5859 48.1989 27.2043 48.1985 27.2323C48.0325 27.2027 47.864 27.1875 47.6945 27.1875H40.1499C39.6188 27.1875 39.0981 27.3372 38.632 27.6123C38.6118 27.6195 38.5918 27.6277 38.5722 27.6373L32.8857 30.4195C32.2557 30.7369 31.7519 31.2693 31.467 31.9186C31.4639 31.9257 31.4609 31.9328 31.4581 31.94L29.107 37.93C28.9889 38.2311 29.136 38.5714 29.4358 38.6901C29.506 38.7179 29.5784 38.7311 29.6496 38.7311C29.8822 38.7311 30.102 38.5903 30.1924 38.3599L32.539 32.3814C32.7154 31.9854 33.024 31.661 33.4027 31.47L36.4072 30.0001L33.4083 33.6497C32.9593 34.1961 32.722 34.8928 32.722 35.6642V55.8986C32.722 56.1342 32.7426 56.3649 32.78 56.5898L26.769 53.9144C25.4112 53.3101 24.7958 51.7049 25.3975 50.3362C25.4 50.3302 25.4025 50.3242 25.405 50.3183L29.2071 40.8273C29.3274 40.5271 29.1826 40.1858 28.8837 40.065C28.5846 39.9442 28.2451 40.0896 28.1247 40.3898L24.326 49.8719C23.4718 51.829 24.3541 54.1213 26.2964 54.9857L33.3451 58.1229C33.3537 58.1267 33.3625 58.1295 33.3712 58.1329C34.0866 59.2557 35.3235 60 36.7276 60H51.1168C53.3303 60 55.2002 58.1217 55.2002 55.8984V52.4609C55.2002 52.1373 54.9391 51.875 54.6169 51.875C54.2947 51.875 54.0335 52.1373 54.0335 52.4609V55.8984C54.0335 57.4865 52.6978 58.8281 51.1168 58.8281H36.7276C35.1622 58.8281 33.8887 57.5139 33.8887 55.8984V35.664C33.8887 35.161 34.0298 34.7342 34.3081 34.3956L38.6345 29.1304C39.0371 28.6404 39.5895 28.3593 40.1499 28.3593H47.6945C47.8044 28.3593 47.9139 28.3705 48.0221 28.3916C47.657 29.6424 46.7524 30.6862 45.5308 31.2092C45.2114 30.6726 44.6274 30.3124 43.961 30.3124C42.9532 30.3124 42.1332 31.136 42.1332 32.1484C42.1332 33.1607 42.9532 33.9843 43.961 33.9843C44.8931 33.9843 45.6639 33.2798 45.7747 32.3731C47.3458 31.7763 48.5338 30.5116 49.063 28.9679C49.1138 29.0192 49.163 29.0732 49.21 29.1304L53.5363 34.3957C53.8569 34.7858 54.0335 35.2363 54.0335 35.6641V49.7266C54.0335 50.0501 54.2947 50.3125 54.6168 50.3125ZM43.961 32.8124C43.5965 32.8124 43.2999 32.5146 43.2999 32.1484C43.2999 31.7822 43.5965 31.4843 43.961 31.4843C44.3256 31.4843 44.6222 31.7822 44.6222 32.1484C44.6222 32.5146 44.3256 32.8124 43.961 32.8124Z" fill="#2CB34A"/>
<path d="M38.9054 51.1719C39.0547 51.1719 39.204 51.1147 39.3179 51.0002L49.2736 41.0002C49.5015 40.7714 49.5015 40.4004 49.2736 40.1716C49.0458 39.9428 48.6764 39.9428 48.4487 40.1716L38.4929 50.1716C38.121 50.5198 38.4064 51.1896 38.9054 51.1719Z" fill="#2CB34A"/>
<path d="M40.1499 45C41.5437 45 42.6778 43.8609 42.6778 42.4609C42.6778 41.0609 41.5437 39.9219 40.1499 39.9219H40.0721C38.6783 39.9219 37.5443 41.0609 37.5443 42.4609C37.5443 43.8609 38.6783 45 40.0721 45H40.1499ZM38.711 42.4609C38.711 41.7071 39.3216 41.0938 40.0721 41.0938H40.1499C40.9004 41.0938 41.5111 41.7071 41.5111 42.4609C41.5111 43.2148 40.9004 43.8281 40.1499 43.8281H40.0721C39.3216 43.8281 38.711 43.2148 38.711 42.4609Z" fill="#2CB34A"/>
<path d="M47.6945 51.1719H47.7722C49.166 51.1719 50.3001 50.0328 50.3001 48.6328C50.3001 47.2328 49.166 46.0938 47.7722 46.0938H47.6945C46.3007 46.0938 45.1666 47.2328 45.1666 48.6328C45.1666 50.0328 46.3007 51.1719 47.6945 51.1719ZM47.6945 47.2656H47.7722C48.5227 47.2656 49.1334 47.879 49.1334 48.6328C49.1334 49.3866 48.5227 50 47.7722 50H47.6945C46.944 50 46.3333 49.3866 46.3333 48.6328C46.3333 47.879 46.944 47.2656 47.6945 47.2656Z" fill="#2CB34A"/>
</svg>
