<svg width="80" height="80" viewBox="0 0 80 80" fill="none" xmlns="http://www.w3.org/2000/svg">
<circle cx="40" cy="40" r="40" fill="white"/>
<path d="M39.3334 20H40.6667V21.3333H39.3334V20Z" fill="#2CB34A"/>
<path d="M31.3333 20H32.6666V22H31.3333V20Z" fill="#2CB34A"/>
<path d="M44.6667 20H46.0001V21.3333H44.6667V20Z" fill="#2CB34A"/>
<path d="M34.0001 20H35.3335V22H34.0001V20Z" fill="#2CB34A"/>
<path d="M59.3333 53.9997H58.6667V33.333C58.6667 31.495 57.1713 29.9997 55.3333 29.9997H51.3333V28.6663H50V29.9997H48.6667V27.9997H47.3333V29.9997H43.3333V28.6663H42V29.9997H38V27.333H36.6667V29.9997H32.6667V28.6663H31.3333V29.9997H30V27.9997H28.6667V29.9997H25.3333C23.4953 29.9997 22 31.495 22 33.333V53.9997H20.6667C20.298 53.9997 20 54.2983 20 54.6663V56.6663C20 58.5043 21.4953 59.9997 23.3333 59.9997H56.6667C58.5047 59.9997 60 58.5043 60 56.6663V54.6663C60 54.2983 59.702 53.9997 59.3333 53.9997ZM23.3333 33.333C23.3333 32.2303 24.2307 31.333 25.3333 31.333H55.3333C56.436 31.333 57.3333 32.2303 57.3333 33.333V53.9997H44.6667C44.414 53.9997 44.1833 54.1423 44.07 54.3683L43.588 55.333H36.412L35.9293 54.3683C35.8167 54.1423 35.586 53.9997 35.3333 53.9997H23.3333V33.333ZM58.6667 56.6663C58.6667 57.769 57.7693 58.6663 56.6667 58.6663H23.3333C22.2307 58.6663 21.3333 57.769 21.3333 56.6663V55.333H34.9213L35.404 56.2977C35.5167 56.5237 35.7473 56.6663 36 56.6663H44C44.2527 56.6663 44.4833 56.5237 44.5967 56.2977L45.0787 55.333H58.6667V56.6663Z" fill="#2CB34A"/>
<path d="M56.0001 52.0003V33.3337C56.0001 32.9657 55.7021 32.667 55.3334 32.667H25.3334C24.9647 32.667 24.6667 32.9657 24.6667 33.3337V52.0003C24.6667 52.3683 24.9647 52.667 25.3334 52.667H55.3334C55.7021 52.667 56.0001 52.3683 56.0001 52.0003ZM54.6667 45.0577L52.1954 47.529C52.0701 47.6537 52.0001 47.8237 52.0001 48.0003V51.3337H50.0001V47.6097L51.8047 45.805C51.9301 45.6803 52.0001 45.5103 52.0001 45.3337V39.211C52.7741 38.935 53.3334 38.2017 53.3334 37.3337C53.3334 36.4657 52.7741 35.7323 52.0001 35.4563V34.0003H54.6667V45.0577ZM33.3334 46.667C33.3334 46.2997 33.6321 46.0003 34.0001 46.0003C34.3681 46.0003 34.6667 46.2997 34.6667 46.667C34.6667 47.0343 34.3681 47.3337 34.0001 47.3337C33.6321 47.3337 33.3334 47.0343 33.3334 46.667ZM34.6667 48.5443C35.4407 48.2683 36.0001 47.535 36.0001 46.667C36.0001 45.5643 35.1027 44.667 34.0001 44.667C32.8974 44.667 32.0001 45.5643 32.0001 46.667C32.0001 47.535 32.5594 48.2683 33.3334 48.5443V51.3337H30.6667V44.943L33.8047 41.805C33.9301 41.6803 34.0001 41.5103 34.0001 41.3337V34.0003H35.3334V42.667C35.3334 42.8437 35.4034 43.0137 35.5287 43.1383L39.3334 46.943V51.3337H34.6667V48.5443ZM40.0001 41.3337C39.6321 41.3337 39.3334 41.0343 39.3334 40.667C39.3334 40.2997 39.6321 40.0003 40.0001 40.0003C40.3681 40.0003 40.6667 40.2997 40.6667 40.667C40.6667 41.0343 40.3681 41.3337 40.0001 41.3337ZM39.3334 38.7897C38.5594 39.0657 38.0001 39.799 38.0001 40.667C38.0001 41.535 38.5594 42.2683 39.3334 42.5443V45.0577L36.6667 42.391V34.0003H39.3334V38.7897ZM40.6667 42.5443C41.4407 42.2683 42.0001 41.535 42.0001 40.667C42.0001 39.799 41.4407 39.0657 40.6667 38.7897V34.0003H43.3334V35.3337C43.3334 35.5103 43.4034 35.6803 43.5287 35.805L45.3334 37.6097V40.123C44.5594 40.399 44.0001 41.1323 44.0001 42.0003C44.0001 42.8683 44.5594 43.6017 45.3334 43.8777V45.0577L42.1954 48.1957C42.0701 48.3203 42.0001 48.4903 42.0001 48.667V51.3337H40.6667V42.5443ZM46.0001 42.667C45.6321 42.667 45.3334 42.3677 45.3334 42.0003C45.3334 41.633 45.6321 41.3337 46.0001 41.3337C46.3681 41.3337 46.6667 41.633 46.6667 42.0003C46.6667 42.3677 46.3681 42.667 46.0001 42.667ZM46.0001 36.391L44.6667 35.0577V34.0003H47.3334V35.0577L46.0001 36.391ZM43.3334 48.943L45.3334 46.943V51.3337H43.3334V48.943ZM46.6667 43.8777C47.4407 43.6017 48.0001 42.8683 48.0001 42.0003C48.0001 41.1323 47.4407 40.399 46.6667 40.123V37.6097L48.4714 35.805C48.5967 35.6803 48.6667 35.5103 48.6667 35.3337V34.0003H50.6667V35.4563C49.8927 35.7323 49.3334 36.4657 49.3334 37.3337C49.3334 38.2017 49.8927 38.935 50.6667 39.211V45.0577L48.8621 46.8623C48.7367 46.987 48.6667 47.157 48.6667 47.3337V51.3337H46.6667V43.8777ZM51.3334 38.0003C50.9654 38.0003 50.6667 37.701 50.6667 37.3337C50.6667 36.9663 50.9654 36.667 51.3334 36.667C51.7014 36.667 52.0001 36.9663 52.0001 37.3337C52.0001 37.701 51.7014 38.0003 51.3334 38.0003ZM29.3334 38.0003C28.9654 38.0003 28.6667 37.701 28.6667 37.3337C28.6667 36.9663 28.9654 36.667 29.3334 36.667C29.7014 36.667 30.0001 36.9663 30.0001 37.3337C30.0001 37.701 29.7014 38.0003 29.3334 38.0003ZM28.6667 34.0003V35.4563C27.8927 35.7323 27.3334 36.4657 27.3334 37.3337C27.3334 38.2017 27.8927 38.935 28.6667 39.211V40.391L26.0001 43.0577V34.0003H28.6667ZM26.0001 44.943L29.8047 41.1383C29.9301 41.0137 30.0001 40.8437 30.0001 40.667V39.211C30.7741 38.935 31.3334 38.2017 31.3334 37.3337C31.3334 36.4657 30.7741 35.7323 30.0001 35.4563V34.0003H32.6667V41.0577L29.5287 44.1957C29.4034 44.3203 29.3334 44.4903 29.3334 44.667V51.3337H26.0001V44.943ZM53.3334 51.3337V48.2763L54.6667 46.943V51.3337H53.3334Z" fill="#2CB34A"/>
<path d="M39.3334 27.333H40.6667V28.6663H39.3334V27.333Z" fill="#2CB34A"/>
<path d="M39.3334 22.667H40.6667V26.0003H39.3334V22.667Z" fill="#2CB34A"/>
<path d="M42 26H43.3333V27.3333H42V26Z" fill="#2CB34A"/>
<path d="M42 20H43.3333V24.6667H42V20Z" fill="#2CB34A"/>
<path d="M50 26H51.3333V27.3333H50V26Z" fill="#2CB34A"/>
<path d="M50 20H51.3333V24.6667H50V20Z" fill="#2CB34A"/>
<path d="M31.3333 26H32.6666V27.3333H31.3333V26Z" fill="#2CB34A"/>
<path d="M44.6667 25.333H46.0001V28.6663H44.6667V25.333Z" fill="#2CB34A"/>
<path d="M44.6667 22.667H46.0001V24.0003H44.6667V22.667Z" fill="#2CB34A"/>
<path d="M34.0001 23.333H35.3335V24.6663H34.0001V23.333Z" fill="#2CB34A"/>
<path d="M34.0001 26H35.3335V28.6667H34.0001V26Z" fill="#2CB34A"/>
<path d="M36.6665 20H37.9998V23.3333H36.6665V20Z" fill="#2CB34A"/>
<path d="M36.6667 24.667H38.0001V26.0003H36.6667V24.667Z" fill="#2CB34A"/>
<path d="M31.3333 23.333H32.6666V24.6663H31.3333V23.333Z" fill="#2CB34A"/>
<path d="M47.3334 20H48.6667V26.6667H47.3334V20Z" fill="#2CB34A"/>
<path d="M28.6667 20H30.0001V26.6667H28.6667V20Z" fill="#2CB34A"/>
</svg>
