<svg width="80" height="80" viewBox="0 0 80 80" fill="none" xmlns="http://www.w3.org/2000/svg">
<circle cx="40" cy="40" r="40" fill="white"/>
<path d="M57.3187 37.3992C57.0119 27.7516 49.3636 20 40 20C30.6364 20 22.9881 27.7516 22.6813 37.3992C21.124 37.7116 20.0025 39.0783 20 40.6666V50C20.0022 51.8401 21.4933 53.3312 23.3334 53.3334C23.3372 56.6455 26.0213 59.3295 29.3334 59.3334H35.5188C35.755 59.7445 36.1925 59.9985 36.6666 60H42.6666C43.4027 59.9993 43.9992 59.4027 44 58.6666V56C43.9993 55.2639 43.4027 54.6674 42.6666 54.6666H36.6666C36.1924 54.6681 35.755 54.9222 35.5188 55.3333H29.3334C28.2293 55.3321 27.3345 54.4373 27.3334 53.3333H29.3334C30.0695 53.3326 30.6659 52.736 30.6667 51.9999V38.6666C30.666 37.9305 30.0695 37.3341 29.3334 37.3333H26.6988C27.0336 29.9241 32.8624 24 40 24C47.1376 24 52.9664 29.9241 53.3012 37.3334H50.6667C49.9306 37.3341 49.3341 37.9306 49.3334 38.6667V52C49.3341 52.7361 49.9306 53.3326 50.6667 53.3334H56.6667C58.5067 53.3312 59.9978 51.8401 60 50V40.6666C59.9975 39.0783 58.876 37.7116 57.3187 37.3992ZM36.6666 56H42.6666L42.6676 58.6666H36.6666V56ZM29.3334 56.6666H35.3334V58H29.3334C26.7573 57.9971 24.6696 55.9095 24.6667 53.3334H26C26.0022 55.1734 27.4933 56.6645 29.3334 56.6666ZM29.3334 38.6666L29.3343 52H23.3334C22.2293 51.9988 21.3345 51.1041 21.3334 50V40.6666C21.3345 39.5626 22.2293 38.6678 23.3334 38.6666H29.3334ZM40 22.6666C32.1266 22.6666 25.6848 29.1869 25.3495 37.3333H24.0163C24.3538 28.4515 31.3924 21.3333 40 21.3333C48.6076 21.3333 55.6463 28.4515 55.9837 37.3333H54.6505C54.3152 29.187 47.8734 22.6666 40 22.6666ZM58.6666 50C58.6655 51.1041 57.7707 51.9988 56.6666 52H50.6666V38.6666H56.6666C57.7707 38.6678 58.6655 39.5626 58.6666 40.6666V50Z" fill="#2CB34A"/>
<path d="M47.3333 45.9997H46V44.333C46 43.9648 45.7015 43.6664 45.3333 43.6664C44.9651 43.6664 44.6667 43.9648 44.6667 44.333V45.9997H41.8415L45.2357 40.3428C45.3583 40.1386 45.3626 39.8844 45.2471 39.6762C45.1315 39.4679 44.9136 39.3372 44.6754 39.3331C44.4373 39.329 44.215 39.4524 44.0925 39.6566L40.0924 46.3233C39.9689 46.5292 39.9657 46.7857 40.0839 46.9947C40.2022 47.2038 40.4239 47.333 40.664 47.333H44.6666V49.333C44.6666 49.7012 44.965 49.9997 45.3332 49.9997C45.7014 49.9997 45.9999 49.7012 45.9999 49.333V47.333H47.3332C47.7014 47.333 47.9999 47.0346 47.9999 46.6664C47.9999 46.2982 47.7015 45.9997 47.3333 45.9997Z" fill="#2CB34A"/>
<path d="M32.3682 48.7371C32.092 48.8756 31.9471 49.1858 32.0182 49.4865C32.0892 49.7872 32.3576 49.9996 32.6666 49.9998H38.6666C39.0348 49.9998 39.3332 49.7013 39.3332 49.3331C39.3332 48.9649 39.0348 48.6665 38.6666 48.6665H34.957C36.6029 47.4302 38.6666 45.3462 38.6666 42.6665C38.6666 41.2802 37.8086 40.0386 36.5118 39.5484C35.215 39.0583 33.7502 39.422 32.8332 40.4617C32.5896 40.7379 32.6161 41.1592 32.8921 41.4028C33.1683 41.6464 33.5896 41.62 33.8332 41.3439C34.3833 40.7199 35.2622 40.5016 36.0404 40.7956C36.8185 41.0897 37.3333 41.8347 37.3332 42.6665C37.3333 46.2029 32.4176 48.712 32.3682 48.7371Z" fill="#2CB34A"/>
</svg>
