<svg width="65" height="73" viewBox="0 0 65 73" fill="none" xmlns="http://www.w3.org/2000/svg">
<g clip-path="url(#clip0)">
<path d="M3.3608 49.14H40.3008V68.54C40.2374 69.4988 40.5546 70.4439 41.1836 71.1703C41.8127 71.8967 42.7028 72.3457 43.6608 72.42H61.5708C62.5298 72.3483 63.4215 71.9 64.051 71.173C64.6806 70.446 64.9969 69.4994 64.9308 68.54V32.33C64.9942 31.3712 64.677 30.4261 64.048 29.6997C63.4189 28.9733 62.5288 28.5243 61.5708 28.45H54.8608V6.45C54.8508 2.9 52.3508 0 49.2608 0H9.0008C5.9108 0 3.4008 2.9 3.4008 6.47V38.8H1.1208C0.801413 38.8231 0.504191 38.9718 0.294257 39.2136C0.0843225 39.4554 -0.021204 39.7705 0.000798913 40.09V45.26C-0.0652863 46.2194 0.250993 47.166 0.880551 47.893C1.51011 48.62 2.40178 49.0683 3.3608 49.14ZM10.0808 38.8V7.8H48.1408V28.45H43.6608C42.7028 28.5243 41.8127 28.9733 41.1836 29.6997C40.5546 30.4261 40.2374 31.3712 40.3008 32.33V38.8H10.0808ZM33.5908 41.38C33.6103 41.6999 33.5041 42.0148 33.2949 42.2576C33.0857 42.5004 32.7901 42.6519 32.4708 42.68H25.7508C25.4306 42.6544 25.1333 42.5036 24.9236 42.2602C24.7139 42.0168 24.6087 41.7005 24.6308 41.38H33.5908ZM62.6908 62.08H42.5408V36.21H62.6908V62.08ZM61.5708 69.84H43.6608C43.3406 69.8144 43.0433 69.6636 42.8336 69.4202C42.6239 69.1768 42.5187 68.8605 42.5408 68.54V64.66H62.6908V68.54C62.7129 68.8605 62.6077 69.1768 62.398 69.4202C62.1883 69.6636 61.891 69.8144 61.5708 69.84ZM62.6908 32.33V33.63H42.5408V32.33C42.5243 32.1686 42.5405 32.0056 42.5883 31.8506C42.636 31.6956 42.7145 31.5518 42.819 31.4277C42.9235 31.3036 43.0518 31.2018 43.1965 31.1283C43.3411 31.0549 43.499 31.0112 43.6608 31H61.5708C61.8902 31.0231 62.1874 31.1718 62.3973 31.4136C62.6073 31.6554 62.7128 31.9705 62.6908 32.29V32.33ZM5.6008 6.47C5.56822 5.99177 5.63042 5.51181 5.78383 5.05767C5.93724 4.60354 6.17884 4.18418 6.49475 3.82367C6.81067 3.46316 7.19467 3.16859 7.62473 2.95689C8.05479 2.74518 8.52243 2.6205 9.0008 2.59H49.3008C50.2588 2.66425 51.1489 3.11329 51.778 3.83967C52.407 4.56606 52.7242 5.5112 52.6608 6.47V28.47H50.3808V7.76C50.4222 7.12066 50.2105 6.49066 49.7914 6.00607C49.3723 5.52148 48.7794 5.22117 48.1408 5.17H10.0808C9.44117 5.21864 8.84672 5.51822 8.42709 6.00342C8.00747 6.48861 7.79671 7.12004 7.8408 7.76V38.76H5.6008V6.47ZM2.2408 41.38H22.3908C22.3247 42.3394 22.641 43.286 23.2706 44.013C23.9001 44.74 24.7918 45.1883 25.7508 45.26H32.4708C33.428 45.1858 34.3172 44.7364 34.9446 44.0097C35.5721 43.283 35.887 42.3378 35.8208 41.38H40.3008V46.56H3.3608C3.04055 46.5344 2.74332 46.3836 2.53363 46.1402C2.32394 45.8968 2.21871 45.5805 2.2408 45.26V41.38Z" fill="black"/>
<path d="M52.1715 58.0904C52.3018 58.1499 52.4433 58.1806 52.5865 58.1806C52.7297 58.1806 52.8712 58.1499 53.0015 58.0904C56.8015 56.3404 59.2915 52.0904 59.2715 47.3504V44.0004C59.2763 43.7858 59.2297 43.5731 59.1358 43.3801C59.0419 43.187 58.9033 43.0192 58.7315 42.8904L53.1915 39.0004H53.1015H53.0015C52.8805 38.9461 52.7492 38.918 52.6165 38.918C52.4838 38.918 52.3526 38.9461 52.2315 39.0004H52.1315H52.0015L46.4015 42.8804C46.2375 43.0159 46.107 43.1875 46.0203 43.3818C45.9335 43.5761 45.8929 43.7878 45.9015 44.0004V47.3804C45.9015 52.1104 48.3715 56.3804 52.1715 58.1204V58.0904ZM57.0915 47.3504C57.1212 48.7543 56.8357 50.147 56.2559 51.4259C55.6762 52.7049 54.8169 53.8375 53.7415 54.7404V42.3804L57.0915 44.7004V47.3504ZM48.0915 44.7004L51.4515 42.3804V54.7404C50.3732 53.8394 49.5113 52.7074 48.9297 51.4282C48.348 50.149 48.0616 48.7553 48.0915 47.3504V44.7004Z" fill="black"/>
<path d="M37.59 17.0497L29.76 10.5897C29.5789 10.4347 29.3483 10.3496 29.11 10.3496C28.8716 10.3496 28.6411 10.4347 28.46 10.5897L20.62 17.0497C20.4705 17.1825 20.3512 17.3459 20.2701 17.5287C20.189 17.7116 20.1481 17.9097 20.15 18.1097V21.1097C20.094 23.8572 20.7097 26.5767 21.9436 29.0322C23.1774 31.4877 24.9921 33.6048 27.23 35.1997L28.55 36.0697C28.6958 36.1683 28.865 36.2267 29.0406 36.239C29.2162 36.2513 29.3919 36.217 29.55 36.1397C34.72 33.5797 38.07 27.7097 38.06 21.2197V18.1097C38.0639 17.9094 38.0239 17.7106 37.9427 17.5275C37.8615 17.3444 37.7411 17.1812 37.59 17.0497ZM35.82 21.1897C35.82 26.4197 33.24 31.1897 29.16 33.4697L28.34 32.9197C26.4578 31.5811 24.9316 29.8023 23.8945 27.7386C22.8575 25.6749 22.3409 23.3888 22.39 21.0797V18.7697L29.11 13.2297L35.82 18.7697V21.1897Z" fill="black"/>
<path d="M28.4909 16.9996L25.1309 19.5896C24.9719 19.7184 24.8443 19.8817 24.7577 20.0671C24.671 20.2524 24.6277 20.4551 24.6309 20.6596V22.4996C24.6 24.0886 24.9315 25.6636 25.6003 27.1053C26.2692 28.5469 27.2577 29.8172 28.4909 30.8196C28.6071 30.9136 28.7428 30.9804 28.8882 31.015C29.0336 31.0496 29.1848 31.0512 29.3309 31.0196C29.4826 30.9832 29.625 30.9154 29.749 30.8207C29.873 30.726 29.9758 30.6064 30.0509 30.4696C30.2185 30.1649 30.2751 29.8114 30.2109 29.4696C30.1601 29.1455 29.9886 28.8526 29.7309 28.6496C28.817 27.9058 28.0845 26.9637 27.589 25.8946C27.0935 24.8256 26.8479 23.6577 26.8709 22.4796V21.3796L29.7309 19.1796C29.9886 18.9767 30.1601 18.6837 30.2109 18.3596C30.2751 18.0178 30.2185 17.6643 30.0509 17.3596C29.9744 17.224 29.8711 17.1053 29.7473 17.0107C29.6236 16.9162 29.4819 16.8478 29.3309 16.8096C29.1848 16.7781 29.0336 16.7797 28.8882 16.8143C28.7428 16.8489 28.6071 16.9157 28.4909 17.0096V16.9996Z" fill="black"/>
<path d="M14.5505 33.6299H12.3105V36.2199H14.5505V33.6299Z" fill="black"/>
<path d="M19.031 33.6299H16.791V36.2199H19.031V33.6299Z" fill="black"/>
<path d="M14.5505 28.4502H12.3105V31.0402H14.5505V28.4502Z" fill="black"/>
<path d="M47.0213 56.9004H44.7812V59.4904H47.0213V56.9004Z" fill="black"/>
</g>
<defs>
<clipPath id="clip0">
<rect width="64.93" height="72.42" fill="white"/>
</clipPath>
</defs>
</svg>
