<svg width="70" height="70" viewBox="0 0 70 70" fill="none" xmlns="http://www.w3.org/2000/svg">
<g clip-path="url(#clip0)">
<path d="M64.41 69.63H5.22C3.83557 69.63 2.50784 69.08 1.5289 68.1011C0.549963 67.1222 0 65.7944 0 64.41L0 5.22C0 3.83557 0.549963 2.50784 1.5289 1.5289C2.50784 0.549963 3.83557 0 5.22 0L64.41 0C65.7944 0 67.1222 0.549963 68.1011 1.5289C69.08 2.50784 69.63 3.83557 69.63 5.22V64.41C69.63 65.7944 69.08 67.1222 68.1011 68.1011C67.1222 69.08 65.7944 69.63 64.41 69.63ZM5.22 2.32C4.45087 2.32 3.71325 2.62554 3.16939 3.16939C2.62554 3.71325 2.32 4.45087 2.32 5.22V64.41C2.32 65.1791 2.62554 65.9168 3.16939 66.4606C3.71325 67.0045 4.45087 67.31 5.22 67.31H64.41C65.1791 67.31 65.9168 67.0045 66.4606 66.4606C67.0045 65.9168 67.31 65.1791 67.31 64.41V5.22C67.31 4.45087 67.0045 3.71325 66.4606 3.16939C65.9168 2.62554 65.1791 2.32 64.41 2.32H5.22Z" fill="black"/>
<path d="M10.4506 11.6096H5.80063C5.49297 11.6096 5.19792 11.4874 4.98038 11.2699C4.76284 11.0524 4.64062 10.7573 4.64062 10.4496V5.79965C4.64062 5.492 4.76284 5.19695 4.98038 4.9794C5.19792 4.76186 5.49297 4.63965 5.80063 4.63965H10.4506C10.7583 4.63965 11.0533 4.76186 11.2709 4.9794C11.4884 5.19695 11.6106 5.492 11.6106 5.79965V10.4496C11.6106 10.7573 11.4884 11.0524 11.2709 11.2699C11.0533 11.4874 10.7583 11.6096 10.4506 11.6096ZM7.00063 9.27965H9.28062V6.99965H7.00063V9.27965Z" fill="black"/>
<path d="M19.7297 11.6096H15.0897C14.782 11.6096 14.487 11.4874 14.2694 11.2699C14.0519 11.0524 13.9297 10.7573 13.9297 10.4496V5.79965C13.9297 5.492 14.0519 5.19695 14.2694 4.9794C14.487 4.76186 14.782 4.63965 15.0897 4.63965H19.7297C20.0373 4.63965 20.3324 4.76186 20.5499 4.9794C20.7675 5.19695 20.8897 5.492 20.8897 5.79965V10.4496C20.8897 10.7573 20.7675 11.0524 20.5499 11.2699C20.3324 11.4874 20.0373 11.6096 19.7297 11.6096ZM16.2497 9.27965H18.5697V6.99965H16.2497V9.27965Z" fill="black"/>
<path d="M29.0009 11.6097H24.3709C24.0633 11.6097 23.7682 11.4875 23.5507 11.2699C23.3332 11.0524 23.2109 10.7573 23.2109 10.4497V5.79969C23.2109 5.49204 23.3332 5.19699 23.5507 4.97945C23.7682 4.76191 24.0633 4.63969 24.3709 4.63969H29.0009C29.1541 4.63837 29.306 4.6674 29.4479 4.7251C29.5898 4.78281 29.7189 4.86804 29.8277 4.97589C29.9364 5.08374 30.0228 5.21206 30.0817 5.35346C30.1406 5.49485 30.1709 5.64651 30.1709 5.79969V10.4497C30.1709 10.6029 30.1406 10.7545 30.0817 10.8959C30.0228 11.0373 29.9364 11.1656 29.8277 11.2735C29.7189 11.3813 29.5898 11.4666 29.4479 11.5243C29.306 11.582 29.1541 11.611 29.0009 11.6097ZM25.5309 9.27969H27.8509V6.99969H25.5309V9.27969Z" fill="black"/>
<path d="M68.47 16.25H1.16C0.852349 16.25 0.557298 16.1278 0.339756 15.9102C0.122214 15.6927 0 15.3977 0 15.09L0 5.22C0 3.83557 0.549963 2.50784 1.5289 1.5289C2.50784 0.549963 3.83557 0 5.22 0L64.41 0C65.7944 0 67.1222 0.549963 68.1011 1.5289C69.08 2.50784 69.63 3.83557 69.63 5.22V15.09C69.63 15.3977 69.5078 15.6927 69.2902 15.9102C69.0727 16.1278 68.7776 16.25 68.47 16.25ZM2.32 13.93H67.32V5.22C67.32 4.45087 67.0145 3.71325 66.4706 3.16939C65.9268 2.62554 65.1891 2.32 64.42 2.32H5.22C4.45087 2.32 3.71325 2.62554 3.16939 3.16939C2.62554 3.71325 2.32 4.45087 2.32 5.22V13.93Z" fill="black"/>
<path d="M34.8201 65.0001C30.2287 65.006 25.7388 63.6501 21.9182 61.1038C18.0976 58.5575 15.118 54.9352 13.3564 50.6953C11.5948 46.4553 11.1303 41.7881 12.0217 37.2841C12.913 32.7801 15.1202 28.6417 18.364 25.3923C21.6078 22.1429 25.7424 19.9286 30.2449 19.0295C34.7473 18.1304 39.4153 18.5868 43.6583 20.3411C47.9013 22.0954 51.5287 25.0687 54.0815 28.8849C56.6344 32.7011 57.9981 37.1887 58.0001 41.7801C57.9975 47.9307 55.5557 53.8292 51.2103 58.182C46.865 62.5349 40.9707 64.9868 34.8201 65.0001ZM34.8201 20.9001C30.688 20.9001 26.6487 22.1255 23.2132 24.4214C19.7776 26.7172 17.1001 29.9804 15.5193 33.7981C13.9385 37.6159 13.5254 41.8167 14.3322 45.8692C15.1391 49.9217 17.1296 53.6439 20.0522 56.5651C22.9747 59.4862 26.6979 61.475 30.7508 62.2799C34.8037 63.0848 39.0043 62.6697 42.8213 61.087C46.6382 59.5044 49.9001 56.8253 52.1944 53.3887C54.4886 49.952 55.7121 45.9121 55.7101 41.7801C55.7048 36.2413 53.5022 30.9309 49.5857 27.0145C45.6692 23.098 40.3588 20.8954 34.8201 20.8901V20.9001Z" fill="black"/>
<path d="M34.8202 60.3502C34.5125 60.3502 34.2175 60.228 33.9999 60.0105C33.7824 59.7929 33.6602 59.4979 33.6602 59.1902V49.9002C33.6602 49.5926 33.7824 49.2975 33.9999 49.08C34.2175 48.8624 34.5125 48.7402 34.8202 48.7402C35.1278 48.7402 35.4229 48.8624 35.6404 49.08C35.8579 49.2975 35.9802 49.5926 35.9802 49.9002V59.1902C35.9802 59.4979 35.8579 59.7929 35.6404 60.0105C35.4229 60.228 35.1278 60.3502 34.8202 60.3502Z" fill="black"/>
<path d="M10.4506 20.8903H5.80063C5.49297 20.8903 5.19792 20.7681 4.98038 20.5506C4.76284 20.333 4.64062 20.038 4.64062 19.7303C4.64062 19.4227 4.76284 19.1276 4.98038 18.9101C5.19792 18.6925 5.49297 18.5703 5.80063 18.5703H10.4506C10.7583 18.5703 11.0533 18.6925 11.2709 18.9101C11.4884 19.1276 11.6106 19.4227 11.6106 19.7303C11.6106 20.038 11.4884 20.333 11.2709 20.5506C11.0533 20.7681 10.7583 20.8903 10.4506 20.8903Z" fill="black"/>
<path d="M5.80063 25.5303C5.49297 25.5303 5.19792 25.4081 4.98038 25.1906C4.76284 24.973 4.64062 24.678 4.64062 24.3703V19.7303C4.64062 19.4227 4.76284 19.1276 4.98038 18.9101C5.19792 18.6925 5.49297 18.5703 5.80063 18.5703C6.10828 18.5703 6.40333 18.6925 6.62087 18.9101C6.83841 19.1276 6.96063 19.4227 6.96063 19.7303V24.3703C6.96063 24.678 6.83841 24.973 6.62087 25.1906C6.40333 25.4081 6.10828 25.5303 5.80063 25.5303Z" fill="black"/>
<path d="M63.8293 64.9997H59.1893C58.8816 64.9997 58.5866 64.8775 58.3691 64.6599C58.1515 64.4424 58.0293 64.1473 58.0293 63.8397C58.0293 63.532 58.1515 63.237 58.3691 63.0194C58.5866 62.8019 58.8816 62.6797 59.1893 62.6797H63.8293C64.137 62.6797 64.432 62.8019 64.6495 63.0194C64.8671 63.237 64.9893 63.532 64.9893 63.8397C64.9893 64.1473 64.8671 64.4424 64.6495 64.6599C64.432 64.8775 64.137 64.9997 63.8293 64.9997Z" fill="black"/>
<path d="M63.8299 65.0003C63.5223 65.0003 63.2272 64.8781 63.0097 64.6605C62.7921 64.443 62.6699 64.1479 62.6699 63.8403V59.1903C62.6699 58.8826 62.7921 58.5876 63.0097 58.37C63.2272 58.1525 63.5223 58.0303 63.8299 58.0303C64.1376 58.0303 64.4326 58.1525 64.6502 58.37C64.8677 58.5876 64.9899 58.8826 64.9899 59.1903V63.8303C64.9912 63.9834 64.9622 64.1354 64.9045 64.2773C64.8468 64.4192 64.7616 64.5482 64.6537 64.657C64.5459 64.7658 64.4176 64.8521 64.2762 64.911C64.1348 64.9699 63.9831 65.0003 63.8299 65.0003Z" fill="black"/>
<path d="M27.8491 48.7401C26.9262 48.7401 26.041 48.3735 25.3884 47.7208C24.7358 47.0682 24.3691 46.1831 24.3691 45.2601V41.7801C24.3691 41.4725 24.4914 41.1774 24.7089 40.9599C24.9264 40.7423 25.2215 40.6201 25.5291 40.6201C25.8368 40.6201 26.1318 40.7423 26.3494 40.9599C26.5669 41.1774 26.6891 41.4725 26.6891 41.7801V45.2601C26.6891 45.5678 26.8114 45.8628 27.0289 46.0804C27.2464 46.2979 27.5415 46.4201 27.8491 46.4201C28.1568 46.4201 28.4518 46.2979 28.6694 46.0804C28.8869 45.8628 29.0091 45.5678 29.0091 45.2601V41.7801C29.0091 41.4725 29.1314 41.1774 29.3489 40.9599C29.5664 40.7423 29.8615 40.6201 30.1691 40.6201C30.4768 40.6201 30.7718 40.7423 30.9894 40.9599C31.2069 41.1774 31.3291 41.4725 31.3291 41.7801V45.2601C31.3291 46.1831 30.9625 47.0682 30.3099 47.7208C29.6572 48.3735 28.7721 48.7401 27.8491 48.7401Z" fill="black"/>
<path d="M41.7808 48.7401C40.8578 48.7401 39.9727 48.3735 39.32 47.7208C38.6674 47.0682 38.3008 46.1831 38.3008 45.2601V41.7801C38.3008 41.4725 38.423 41.1774 38.6405 40.9599C38.8581 40.7423 39.1531 40.6201 39.4608 40.6201C39.7684 40.6201 40.0635 40.7423 40.281 40.9599C40.4986 41.1774 40.6208 41.4725 40.6208 41.7801V45.2601C40.6208 45.5678 40.743 45.8628 40.9605 46.0804C41.1781 46.2979 41.4731 46.4201 41.7808 46.4201C42.0884 46.4201 42.3835 46.2979 42.601 46.0804C42.8186 45.8628 42.9408 45.5678 42.9408 45.2601V41.7801C42.9408 41.4725 43.063 41.1774 43.2805 40.9599C43.4981 40.7423 43.7931 40.6201 44.1008 40.6201C44.4084 40.6201 44.7035 40.7423 44.921 40.9599C45.1386 41.1774 45.2608 41.4725 45.2608 41.7801V45.2601C45.2608 46.1831 44.8941 47.0682 44.2415 47.7208C43.5889 48.3735 42.7037 48.7401 41.7808 48.7401Z" fill="black"/>
<path d="M37.8403 60.3505H31.8403C31.467 60.3545 31.0968 60.2841 30.751 60.1434C30.4053 60.0027 30.0911 59.7946 29.8267 59.5311C29.5623 59.2677 29.3531 58.9542 29.2112 58.609C29.0693 58.2637 28.9976 57.8937 29.0003 57.5205V50.1805C27.9342 49.7154 26.9486 49.0843 26.0803 48.3105L26.0003 48.1905C25.6273 47.8993 25.2915 47.5634 25.0003 47.1905C24.6209 46.6269 24.4252 45.9597 24.4403 45.2805V41.7805C24.425 40.2675 24.8848 38.7879 25.7549 37.55C26.625 36.3122 27.8615 35.3785 29.2903 34.8805C28.1586 33.3662 27.6511 31.4755 27.8726 29.5981C28.094 27.7207 29.0274 25.9999 30.4803 24.7905C31.2832 24.1344 32.2218 23.6649 33.2283 23.4158C34.2348 23.1668 35.2841 23.1445 36.3003 23.3505C37.7137 23.6516 39.0023 24.3752 39.9953 25.4253C40.9882 26.4753 41.6386 27.8024 41.8603 29.2305C42.0269 30.2159 41.9914 31.225 41.7559 32.1963C41.5204 33.1676 41.0898 34.0808 40.4903 34.8805C41.9115 35.3735 43.1426 36.2994 44.0107 37.5279C44.8788 38.7565 45.3402 40.2262 45.3303 41.7305V45.2605C45.3155 45.7739 45.1888 46.2779 44.9591 46.7374C44.7293 47.1968 44.4021 47.6006 44.0003 47.9205L43.5403 48.2905C42.6477 49.0422 41.6631 49.6773 40.6103 50.1805V57.5205C40.6156 58.264 40.326 58.9794 39.8049 59.5098C39.2839 60.0403 38.5738 60.3426 37.8303 60.3505H37.8403ZM34.8403 25.5305C33.7693 25.528 32.7317 25.9033 31.9103 26.5905C31.3167 27.0763 30.8429 27.6921 30.5255 28.3904C30.2081 29.0886 30.0556 29.8505 30.0798 30.6171C30.1039 31.3837 30.3041 32.1345 30.6649 32.8114C31.0257 33.4882 31.5373 34.073 32.1603 34.5205C32.3847 34.6856 32.5491 34.9195 32.6285 35.1867C32.708 35.4538 32.698 35.7395 32.6003 36.0005C32.5194 36.2582 32.3585 36.4835 32.1409 36.6435C31.9233 36.8036 31.6604 36.8901 31.3903 36.8905C30.1207 36.9167 28.9132 37.4451 28.0323 38.3597C27.1514 39.2743 26.6688 40.5008 26.6903 41.7705V45.3005C26.6819 45.4911 26.7232 45.6807 26.8103 45.8505C26.9991 46.0781 27.2139 46.2828 27.4503 46.4605L27.6003 46.5905C28.4436 47.3529 29.4338 47.9348 30.5103 48.3005C30.7478 48.3733 30.9557 48.5204 31.1033 48.7203C31.2509 48.9201 31.3305 49.162 31.3303 49.4105V57.5605C31.3276 57.6248 31.3376 57.6891 31.3598 57.7496C31.382 57.8101 31.4159 57.8656 31.4595 57.9129C31.5032 57.9603 31.5557 57.9986 31.6142 58.0256C31.6727 58.0527 31.7359 58.0679 31.8003 58.0705H37.8003C37.9285 58.0627 38.0485 58.0049 38.1346 57.9096C38.2206 57.8142 38.2657 57.6888 38.2603 57.5605V49.3705C38.2601 49.122 38.3396 48.8801 38.4872 48.6803C38.6349 48.4804 38.8427 48.3333 39.0803 48.2605C40.1814 47.8525 41.1983 47.2458 42.0803 46.4705L42.4103 46.2005C42.5579 46.0913 42.6788 45.9499 42.7637 45.787C42.8486 45.6241 42.8953 45.4441 42.9003 45.2605V41.7805C42.9162 41.1479 42.8072 40.5185 42.5795 39.9282C42.3518 39.3378 42.0098 38.7982 41.5732 38.3402C41.1366 37.8823 40.6139 37.515 40.0352 37.2593C39.4564 37.0037 38.8328 36.8647 38.2003 36.8505C37.9371 36.8493 37.6807 36.7671 37.466 36.615C37.2513 36.4629 37.0887 36.2483 37.0003 36.0005C36.9183 35.7414 36.9196 35.4632 37.0039 35.205C37.0882 34.9467 37.2513 34.7213 37.4703 34.5605C38.2321 34.011 38.8238 33.2581 39.1775 32.388C39.5312 31.5178 39.6327 30.5656 39.4703 29.6405C39.325 28.6767 38.8922 27.7792 38.2285 27.0655C37.5647 26.3518 36.701 25.8551 35.7503 25.6405C35.4217 25.5697 35.0863 25.5361 34.7503 25.5405L34.8403 25.5305Z" fill="black"/>
</g>
<defs>
<clipPath id="clip0">
<rect width="69.63" height="69.63" fill="white"/>
</clipPath>
</defs>
</svg>
