<svg width="65" height="73" viewBox="0 0 65 73" fill="none" xmlns="http://www.w3.org/2000/svg">
<g clip-path="url(#clip0)">
<path d="M0.0599396 30.0005C0.0715215 30.0472 0.0918828 30.0913 0.11994 30.1305C0.143265 30.1694 0.170039 30.2063 0.19994 30.2405L14.1899 46.0005V62.2405C14.1909 62.4045 14.2371 62.5651 14.3236 62.7045C14.4101 62.8439 14.5334 62.9567 14.6799 63.0305C14.8263 63.1034 14.9902 63.1337 15.1529 63.1178C15.3156 63.1018 15.4705 63.0404 15.5999 62.9405L23.8999 56.5705C24.0065 56.4877 24.0926 56.3815 24.1515 56.2601C24.2105 56.1387 24.2407 56.0054 24.2399 55.8705V55.1805C24.7388 55.6465 25.2665 56.0807 25.8199 56.4805L25.7499 58.9305C25.7452 59.1124 25.7963 59.2914 25.8964 59.4434C25.9966 59.5954 26.1409 59.713 26.3099 59.7805L31.1799 61.6705C31.3502 61.7435 31.5396 61.7596 31.7198 61.7164C31.9 61.6732 32.0614 61.5729 32.1799 61.4305L33.7499 59.5905C35.1755 59.7343 36.6136 59.6973 38.0299 59.4805L39.7099 61.2505C39.8372 61.3806 40.0013 61.4686 40.1801 61.5025C40.3589 61.5365 40.5438 61.5148 40.7099 61.4405L45.4899 59.3405C45.6565 59.265 45.7958 59.14 45.8889 58.9826C45.9819 58.8251 46.0242 58.6428 46.0099 58.4605L45.7499 56.0005C46.8946 55.1061 47.905 54.052 48.7499 52.8705L51.1699 52.9505C51.3527 52.953 51.532 52.8999 51.6838 52.798C51.8357 52.6962 51.9529 52.5506 52.0199 52.3805L53.8999 47.4905C53.9698 47.3197 53.9843 47.1312 53.9412 46.9518C53.8982 46.7723 53.7997 46.6109 53.6599 46.4905L51.8399 44.9005C51.9784 43.4647 51.9415 42.0173 51.7299 40.5905L53.4799 38.8905C53.6143 38.766 53.7059 38.6024 53.7418 38.4228C53.7777 38.2433 53.7561 38.057 53.6799 37.8905L51.5899 33.0705C51.5178 32.9028 51.3953 32.7617 51.2394 32.6668C51.0836 32.5718 50.902 32.5277 50.7199 32.5405L48.2899 32.7205C47.4028 31.5797 46.3592 30.5698 45.1899 29.7205L45.2599 27.2805C45.2677 27.0979 45.2177 26.9176 45.1172 26.765C45.0167 26.6125 44.8707 26.4954 44.6999 26.4305L39.8299 24.5305C39.6579 24.4632 39.4692 24.4512 39.2901 24.496C39.1109 24.5408 38.9501 24.6402 38.8299 24.7805L38.4099 25.2805V23.9105C38.4141 23.7898 38.3935 23.6696 38.3492 23.5573C38.305 23.445 38.2381 23.343 38.1527 23.2577C38.0674 23.1723 37.9654 23.1054 37.8531 23.0612C37.7408 23.0169 37.6206 22.9963 37.4999 23.0005H33.8999C34.2258 22.1581 34.2694 21.2328 34.0241 20.3636C33.7789 19.4943 33.258 18.7282 32.5399 18.1805C31.8232 17.6291 30.9443 17.3301 30.0399 17.3301C29.1356 17.3301 28.2567 17.6291 27.5399 18.1805C26.8236 18.7296 26.3047 19.4962 26.0613 20.3654C25.8179 21.2345 25.863 22.1592 26.1899 23.0005H0.89994C0.665634 23.0031 0.44182 23.098 0.277069 23.2646C0.112318 23.4313 0.0199248 23.6561 0.0199396 23.8905V29.7005C0.0199396 29.7505 0.0199396 29.8005 0.0199396 29.8505C0.0141868 29.897 0.0141868 29.944 0.0199396 29.9905L0.0599396 30.0005ZM22.4399 55.4305L15.9499 60.4305V45.6705C15.9482 45.4522 15.8663 45.2423 15.7199 45.0805L2.89994 30.5805H35.5399L33.1899 33.2305L22.6599 45.0805C22.521 45.246 22.4433 45.4544 22.4399 45.6705V55.4305ZM35.4399 34.5605C37.1383 34.5466 38.8024 35.0377 40.2211 35.9713C41.6399 36.905 42.7492 38.2391 43.4083 39.8044C44.0674 41.3697 44.2465 43.0955 43.923 44.7628C43.5995 46.43 42.7878 47.9636 41.5911 49.1687C40.3944 50.3739 38.8666 51.1963 37.2016 51.5315C35.5367 51.8668 33.8097 51.6998 32.2398 51.0517C30.6699 50.4037 29.328 49.3037 28.3844 47.8916C27.4408 46.4795 26.938 44.8188 26.9399 43.1205C26.9352 43.0439 26.9352 42.9671 26.9399 42.8905L34.2599 34.6405C34.6478 34.5889 35.0386 34.5622 35.4299 34.5605H35.4399ZM39.7099 26.4505L43.4099 27.8905L43.3499 30.1905C43.3452 30.3412 43.3785 30.4907 43.4466 30.6253C43.5148 30.7598 43.6156 30.8751 43.7399 30.9605C45.0423 31.8298 46.1799 32.9234 47.0999 34.1905C47.1873 34.3102 47.304 34.4053 47.4389 34.4667C47.5738 34.528 47.7223 34.5534 47.8699 34.5405L50.1599 34.3705L51.7499 38.0505L50.0999 39.6505C49.9951 39.7504 49.9172 39.8753 49.8735 40.0134C49.8298 40.1515 49.8217 40.2984 49.8499 40.4405C50.1297 41.9985 50.1701 43.5902 49.9699 45.1605C49.9496 45.3067 49.9665 45.4558 50.0189 45.5938C50.0713 45.7319 50.1577 45.8545 50.2699 45.9505L51.9699 47.4305L50.5399 51.1705L48.2599 51.1005C48.1107 51.0965 47.9629 51.1302 47.8301 51.1983C47.6973 51.2665 47.5837 51.3669 47.4999 51.4905C46.6398 52.8018 45.5568 53.9525 44.2999 54.8905C44.1802 54.9778 44.0851 55.0946 44.0237 55.2295C43.9624 55.3644 43.937 55.5128 43.9499 55.6605L44.1099 57.9605L40.4699 59.5705L38.8999 57.9105C38.7969 57.8066 38.6705 57.7289 38.5314 57.6837C38.3923 57.6385 38.2444 57.6271 38.0999 57.6505C36.5597 57.9402 34.983 57.9807 33.4299 57.7705C33.2854 57.7537 33.1389 57.7722 33.003 57.8244C32.8672 57.8767 32.746 57.9611 32.6499 58.0705L31.1799 59.8005L27.4799 58.3505L27.5499 56.0605C27.5526 55.909 27.5175 55.7592 27.4476 55.6247C27.3778 55.4903 27.2754 55.3754 27.1499 55.2905C26.0205 54.5416 25.0093 53.6282 24.1499 52.5805V46.0005L25.2899 44.7305C25.6073 46.6408 26.4589 48.4224 27.7463 49.8691C29.0336 51.3159 30.7041 52.3688 32.5647 52.906C34.4252 53.4433 36.3998 53.4431 38.2602 52.9053C40.1206 52.3676 41.7909 51.3143 43.0778 49.8672C44.3648 48.4201 45.2159 46.6383 45.5329 44.7279C45.8498 42.8174 45.6196 40.8563 44.8688 39.0712C44.118 37.286 42.8773 35.7499 41.2902 34.6402C39.7031 33.5305 37.8343 32.8927 35.8999 32.8005L38.1299 30.2905L38.2199 30.1805L38.2799 30.0505C38.2846 30.0006 38.2846 29.9504 38.2799 29.9005C38.2849 29.8506 38.2849 29.8003 38.2799 29.7505V28.0005L39.7099 26.4505ZM28.3599 19.8305C28.7861 19.3956 29.365 19.144 29.9737 19.1291C30.5824 19.1141 31.1729 19.337 31.6199 19.7505C32.0717 20.1546 32.3523 20.716 32.4043 21.32C32.4563 21.9239 32.2759 22.525 31.8999 23.0005H28.1999C27.8326 22.5409 27.6461 21.9628 27.6756 21.3752C27.7051 20.7875 27.9485 20.231 28.3599 19.8105V19.8305ZM36.6199 24.8305V28.8305H1.75994V24.8305H36.6199Z" fill="black"/>
<path d="M22.1101 1.22007C21.7295 0.833364 21.2757 0.526249 20.7753 0.316617C20.2748 0.106984 19.7376 -0.000976562 19.1951 -0.000976562C18.6525 -0.000976562 18.1153 0.106984 17.6149 0.316617C17.1144 0.526249 16.6607 0.833364 16.2801 1.22007C15.5063 2.00097 15.0723 3.05579 15.0723 4.15507C15.0723 5.25436 15.5063 6.30918 16.2801 7.09007C16.6613 7.47557 17.1153 7.78161 17.6157 7.99047C18.116 8.19934 18.6529 8.30688 19.1951 8.30688C19.7373 8.30688 20.2741 8.19934 20.7744 7.99047C21.2748 7.78161 21.7288 7.47557 22.1101 7.09007C22.8844 6.30748 23.3187 5.251 23.3187 4.15007C23.3187 3.04914 22.8844 1.99266 22.1101 1.21007V1.22007ZM20.9001 5.84007C20.6807 6.06109 20.4197 6.23651 20.1323 6.35622C19.8448 6.47592 19.5365 6.53755 19.2251 6.53755C18.9137 6.53755 18.6053 6.47592 18.3179 6.35622C18.0304 6.23651 17.7694 6.06109 17.5501 5.84007C17.1073 5.391 16.8591 4.78571 16.8591 4.15507C16.8591 3.52444 17.1073 2.91914 17.5501 2.47007C17.7694 2.24906 18.0304 2.07364 18.3179 1.95393C18.6053 1.83422 18.9137 1.77259 19.2251 1.77259C19.5365 1.77259 19.8448 1.83422 20.1323 1.95393C20.4197 2.07364 20.6807 2.24906 20.9001 2.47007C21.3428 2.91914 21.591 3.52444 21.591 4.15507C21.591 4.78571 21.3428 5.391 20.9001 5.84007Z" fill="black"/>
<path d="M2.26922 12.0705C1.49488 12.8531 1.06055 13.9096 1.06055 15.0105C1.06055 16.1114 1.49488 17.1679 2.26922 17.9505C2.65204 18.3351 3.10707 18.6403 3.60817 18.8485C4.10927 19.0568 4.64657 19.164 5.18922 19.164C5.73186 19.164 6.26917 19.0568 6.77027 18.8485C7.27137 18.6403 7.72639 18.3351 8.10922 17.9505C8.88356 17.1679 9.31789 16.1114 9.31789 15.0105C9.31789 13.9096 8.88356 12.8531 8.10922 12.0705C7.72776 11.6835 7.27317 11.3762 6.77189 11.1664C6.2706 10.9567 5.73262 10.8486 5.18922 10.8486C4.64581 10.8486 4.10783 10.9567 3.60655 11.1664C3.10526 11.3762 2.65068 11.6835 2.26922 12.0705ZM6.89922 16.6905C6.6807 16.9112 6.4206 17.0864 6.13396 17.206C5.84731 17.3256 5.5398 17.3871 5.22922 17.3871C4.91863 17.3871 4.61112 17.3256 4.32448 17.206C4.03783 17.0864 3.77773 16.9112 3.55922 16.6905C3.33759 16.4694 3.16175 16.2068 3.04177 15.9177C2.9218 15.6285 2.86004 15.3186 2.86004 15.0055C2.86004 14.6925 2.9218 14.3825 3.04177 14.0934C3.16175 13.8042 3.33759 13.5416 3.55922 13.3205C3.77773 13.0998 4.03783 12.9246 4.32448 12.805C4.61112 12.6854 4.91863 12.6239 5.22922 12.6239C5.5398 12.6239 5.84731 12.6854 6.13396 12.805C6.4206 12.9246 6.6807 13.0998 6.89922 13.3205C7.34197 13.7696 7.59019 14.3749 7.59019 15.0055C7.59019 15.6361 7.34197 16.2414 6.89922 16.6905Z" fill="black"/>
<path d="M16.9008 65.2301C16.1283 66.0156 15.6953 67.0733 15.6953 68.1751C15.6953 69.2769 16.1283 70.3345 16.9008 71.1201C17.2836 71.5047 17.7387 71.8098 18.2398 72.0181C18.7409 72.2263 19.2782 72.3335 19.8208 72.3335C20.3635 72.3335 20.9008 72.2263 21.4019 72.0181C21.903 71.8098 22.358 71.5047 22.7408 71.1201C23.5134 70.3345 23.9463 69.2769 23.9463 68.1751C23.9463 67.0733 23.5134 66.0156 22.7408 65.2301C22.358 64.8455 21.903 64.5403 21.4019 64.332C20.9008 64.1238 20.3635 64.0166 19.8208 64.0166C19.2782 64.0166 18.7409 64.1238 18.2398 64.332C17.7387 64.5403 17.2836 64.8455 16.9008 65.2301ZM21.4908 69.8601C21.2723 70.0808 21.0122 70.256 20.7256 70.3756C20.4389 70.4951 20.1314 70.5567 19.8208 70.5567C19.5102 70.5567 19.2027 70.4951 18.9161 70.3756C18.6294 70.256 18.3693 70.0808 18.1508 69.8601C17.9292 69.639 17.7534 69.3764 17.6334 69.0872C17.5134 68.7981 17.4516 68.4881 17.4516 68.1751C17.4516 67.862 17.5134 67.552 17.6334 67.2629C17.7534 66.9738 17.9292 66.7111 18.1508 66.4901C18.3693 66.2693 18.6294 66.0941 18.9161 65.9746C19.2027 65.855 19.5102 65.7934 19.8208 65.7934C20.1314 65.7934 20.4389 65.855 20.7256 65.9746C21.0122 66.0941 21.2723 66.2693 21.4908 66.4901C21.9336 66.9391 22.1818 67.5444 22.1818 68.1751C22.1818 68.8057 21.9336 69.411 21.4908 69.8601Z" fill="black"/>
<path d="M22.5105 15.0002L16.1405 13.5302C16.0062 13.5002 15.8668 13.5017 15.7332 13.5347C15.5996 13.5677 15.4754 13.6312 15.3705 13.7202C15.2651 13.8112 15.1823 13.9254 15.1285 14.0538C15.0747 14.1822 15.0514 14.3213 15.0605 14.4602L15.5405 21.0002C15.5531 21.1622 15.6103 21.3176 15.7058 21.4491C15.8012 21.5805 15.9313 21.683 16.0814 21.7452C16.2315 21.8073 16.396 21.8266 16.5564 21.8011C16.7169 21.7755 16.8671 21.706 16.9905 21.6002L22.8905 16.5002C23.0039 16.3913 23.0865 16.2543 23.1297 16.1032C23.173 15.952 23.1755 15.7921 23.1368 15.6397C23.0982 15.4873 23.0199 15.3478 22.9099 15.2355C22.7999 15.1232 22.6621 15.042 22.5105 15.0002ZM17.1705 19.1002L16.9005 15.4802L20.4205 16.2902L17.1705 19.1002Z" fill="black"/>
<path d="M58.5803 24.0905L61.5803 21.0905C61.6899 20.9753 61.7678 20.8337 61.8063 20.6795C61.8449 20.5253 61.8428 20.3637 61.8003 20.2105C61.7541 20.0568 61.6676 19.9183 61.5498 19.8092C61.4319 19.7002 61.2871 19.6247 61.1303 19.5905L52.3403 17.7505C52.1975 17.7211 52.0497 17.7276 51.91 17.7695C51.7704 17.8114 51.6433 17.8874 51.5403 17.9905C51.4371 18.0956 51.3612 18.2244 51.3194 18.3656C51.2775 18.5068 51.271 18.6561 51.3003 18.8005L53.1303 27.6605C53.1627 27.8166 53.2364 27.9611 53.3437 28.0789C53.451 28.1968 53.588 28.2837 53.7403 28.3305C53.8917 28.3752 54.0524 28.3784 54.2055 28.3397C54.3585 28.301 54.4984 28.2218 54.6103 28.1105L57.3403 25.3605C61.4143 30.5326 63.3985 37.0455 62.9003 43.6105C62.5322 49.4253 60.1447 54.9289 56.1503 59.1705C53.4806 61.7932 50.2187 63.7346 46.6403 64.8305C42.7653 66.0609 38.6576 66.3758 34.6403 65.7505C34.4203 65.7393 34.2039 65.8101 34.0331 65.9492C33.8622 66.0884 33.7491 66.2859 33.7155 66.5036C33.6819 66.7214 33.7303 66.9438 33.8512 67.128C33.9722 67.3121 34.1571 67.4449 34.3703 67.5005C35.7796 67.7204 37.2039 67.8308 38.6303 67.8305C41.5107 67.8311 44.3741 67.3892 47.1203 66.5205C50.9658 65.3388 54.4709 63.2502 57.3403 60.4305C61.631 55.887 64.1991 49.9869 64.6003 43.7505C65.1393 36.7071 62.9961 29.7202 58.6003 24.1905L58.5203 24.0905H58.5803ZM54.5103 25.6805L53.2903 19.7505L59.1703 21.0005L54.5103 25.6805Z" fill="black"/>
</g>
<defs>
<clipPath id="clip0">
<rect width="64.7" height="72.33" fill="white"/>
</clipPath>
</defs>
</svg>
