<svg width="69" height="77" viewBox="0 0 69 77" fill="none" xmlns="http://www.w3.org/2000/svg">
<g clip-path="url(#clip0)">
<path d="M54.5502 11.32C54.2924 11.2929 54.0438 11.2089 53.8225 11.074C53.6011 10.9391 53.4125 10.7567 53.2702 10.54C51.956 8.56221 50.1807 6.93353 48.0972 5.79424C46.0137 4.65494 43.6845 4.03919 41.3102 4H40.4402C40.0124 4.03152 39.5892 3.89523 39.2602 3.62C36.437 1.28824 32.8919 0.00876048 29.2302 0C25.9813 0.0615002 22.8214 1.07233 20.1401 2.90789C17.4587 4.74344 15.3731 7.32349 14.1402 10.33C14.0252 10.6125 13.8399 10.8609 13.6018 11.0517C13.3638 11.2425 13.081 11.3692 12.7802 11.42C5.57021 12.53 0.00020735 19.28 0.00020735 27.4C-0.0491627 30.4296 0.748477 33.4129 2.30326 36.0136C3.85805 38.6143 6.1082 40.7292 8.80021 42.12C8.80021 41.89 8.80021 41.66 8.80021 41.42C8.75462 39.27 8.91199 37.1205 9.27021 35C8.18977 34.044 7.32713 32.8672 6.74057 31.5492C6.15401 30.2312 5.8572 28.8026 5.87021 27.36C5.87021 21.97 9.87021 17.58 14.8702 17.58C15.1202 17.58 15.3702 17.58 15.6102 17.58C16.3241 17.6138 17.0267 17.3917 17.5913 16.9535C18.156 16.5153 18.5457 15.89 18.6902 15.19C19.9302 10 24.2502 6.36 29.2302 6.36C30.6571 6.36672 32.0672 6.66871 33.3717 7.24696C34.6763 7.82522 35.847 8.66723 36.8102 9.72C37.1416 10.0769 37.5603 10.3411 38.0251 10.4867C38.4898 10.6322 38.9845 10.6541 39.4602 10.55C41.49 10.1001 43.6139 10.3911 45.4479 11.3704C47.2819 12.3498 48.705 13.9529 49.4602 15.89C49.6934 16.4615 50.104 16.943 50.6315 17.2635C51.159 17.5839 51.7756 17.7264 52.3902 17.67C52.6902 17.67 53.0002 17.62 53.2902 17.62C58.2902 17.62 62.2902 22.01 62.2902 27.4C62.2975 28.8359 61.9979 30.2567 61.4115 31.5674C60.8252 32.8781 59.9655 34.0485 58.8902 35C59.2443 37.1076 59.4049 39.2432 59.3702 41.38C59.3702 41.62 59.3702 41.85 59.3702 42.08C62.0622 40.6892 64.3124 38.5743 65.8671 35.9736C67.4219 33.3729 68.2196 30.3896 68.1702 27.36C68.1702 18.93 62.1702 11.99 54.5702 11.28L54.5502 11.32Z" fill="black"/>
<path d="M34.0807 23.4897C19.3607 38.2197 11.7207 22.8997 11.7207 41.4197C11.7207 67.2397 28.9107 74.9997 34.0807 75.9997C39.2407 74.9997 56.4307 67.2197 56.4307 41.3997C56.4307 22.8797 48.7907 38.1997 34.0807 23.4697V23.4897ZM46.4207 47.2097L33.5407 61.2097C33.2293 61.5564 32.8485 61.8336 32.423 62.0234C31.9974 62.2132 31.5367 62.3113 31.0707 62.3113C30.6047 62.3113 30.144 62.2132 29.7185 62.0234C29.2929 61.8336 28.9121 61.5564 28.6007 61.2097L21.7407 53.7597C21.0773 53.0247 20.7101 52.0698 20.7101 51.0797C20.7101 50.0896 21.0773 49.1347 21.7407 48.3997C22.0503 48.0502 22.4306 47.7705 22.8564 47.5788C23.2822 47.3872 23.7438 47.2881 24.2107 47.2881C24.6776 47.2881 25.1392 47.3872 25.565 47.5788C25.9908 47.7705 26.3711 48.0502 26.6807 48.3997L31.0707 53.1697L41.4807 41.8497C41.7921 41.5031 42.1729 41.2258 42.5985 41.036C43.024 40.8463 43.4847 40.7482 43.9507 40.7482C44.4167 40.7482 44.8774 40.8463 45.303 41.036C45.7285 41.2258 46.1093 41.5031 46.4207 41.8497C47.0841 42.5847 47.4513 43.5396 47.4513 44.5297C47.4513 45.5198 47.0841 46.4747 46.4207 47.2097Z" fill="black"/>
</g>
<defs>
<clipPath id="clip0">
<rect width="68.15" height="76.02" fill="white"/>
</clipPath>
</defs>
</svg>
